<?xml version="1.0" encoding="UTF-8"?>
<svg xmlns="http://www.w3.org/2000/svg" width="840" height="980" viewBox="0 0 840 980" role="img" aria-label="Portrait of Kai Andersen">
  <defs>
    <linearGradient id="bg" x1="0" y1="0" x2="0" y2="1">
      <stop offset="0%" stop-color="#dce9ef"/>
      <stop offset="100%" stop-color="#c8d8e3"/>
    </linearGradient>
    <linearGradient id="jacket" x1="0" y1="0" x2="1" y2="1">
      <stop offset="0%" stop-color="#5f7a5d"/>
      <stop offset="100%" stop-color="#445d45"/>
    </linearGradient>
    <filter id="grain" x="-20%" y="-20%" width="140%" height="140%">
      <feTurbulence type="fractalNoise" baseFrequency="0.8" numOctaves="2" seed="7"/>
      <feColorMatrix type="saturate" values="0"/>
      <feComponentTransfer><feFuncA type="table" tableValues="0 0.035"/></feComponentTransfer>
    </filter>
  </defs>

  <rect width="840" height="980" fill="url(#bg)"/>
  <circle cx="160" cy="150" r="140" fill="#ffffff" opacity="0.16"/>
  <circle cx="700" cy="860" r="180" fill="#93afbe" opacity="0.16"/>
  <rect width="840" height="980" filter="url(#grain)"/>

  <g transform="translate(420 530)">
    <ellipse cx="0" cy="310" rx="170" ry="40" fill="#6c8493" opacity="0.2"/>
    <ellipse cx="0" cy="-190" rx="88" ry="108" fill="#d8b39e"/>
    <path d="M-96 -210 Q-70 -318 0 -330 Q74 -318 98 -212 Q58 -244 2 -244 Q-56 -244 -96 -210 Z" fill="#2f2f34"/>
    <path d="M-68 -206 Q-34 -246 8 -250" stroke="#59666e" stroke-width="6" fill="none" stroke-linecap="round"/>
    <ellipse cx="-28" cy="-196" rx="14" ry="8" fill="#f3d4c4"/>
    <ellipse cx="90" cy="-196" rx="13" ry="8" fill="#f3d4c4"/>
    <ellipse cx="-28" cy="-174" rx="12" ry="8" fill="#fff"/>
    <ellipse cx="30" cy="-172" rx="13" ry="8" fill="#fff"/>
    <circle cx="-28" cy="-174" r="4" fill="#4b372d"/>
    <circle cx="30" cy="-172" r="4" fill="#4b372d"/>
    <path d="M-38 -144 Q-2 -130 34 -146" stroke="#815d53" stroke-width="5" fill="none" stroke-linecap="round"/>

    <path d="M-200 -36 Q-132 -134 0 -150 Q134 -132 200 -36 L178 214 Q114 268 0 278 Q-114 268 -178 214 Z" fill="url(#jacket)"/>
    <path d="M-40 -116 L40 -116 L26 272 L-26 272 Z" fill="#e7edf0"/>
    <path d="M0 -116 L0 272" stroke="#cad4db" stroke-width="4"/>
    <path d="M-124 -30 L-70 -16 L-74 52 L-138 34 Z" fill="#6e8d6a"/>

    <path d="M-220 20 Q-184 56 -176 124 Q-198 150 -230 132 Q-248 82 -220 20 Z" fill="#d8b39e"/>
    <path d="M220 22 Q184 58 176 126 Q196 152 230 136 Q250 86 220 22 Z" fill="#d8b39e"/>

    <rect x="-70" y="224" width="52" height="114" rx="12" fill="#40586c"/>
    <rect x="18" y="224" width="52" height="114" rx="12" fill="#40586c"/>

    <rect x="-182" y="76" width="82" height="112" rx="12" fill="#8c6646"/>
    <rect x="-172" y="88" width="62" height="88" rx="8" fill="#efe6d4"/>
    <line x1="-164" y1="108" x2="-116" y2="108" stroke="#9d8a73" stroke-width="4"/>
    <line x1="-164" y1="124" x2="-116" y2="124" stroke="#9d8a73" stroke-width="4"/>

    <circle cx="-64" cy="-46" r="15" fill="#d5c27b" stroke="#7f6d2c" stroke-width="3"/>
    <path d="M-74 -44 L-56 -44 L-65 -56 Z" fill="#628a68"/>
    <text x="0" y="384" text-anchor="middle" font-family="Georgia, serif" font-size="42" fill="#334e60">Kai Andersen</text>
  </g>
</svg>
