<?xml version="1.0" encoding="UTF-8"?>
<svg xmlns="http://www.w3.org/2000/svg" width="1400" height="900" viewBox="0 0 1400 900" role="img" aria-label="Team celebrates growth at national expo">
  <defs>
    <linearGradient id="bg" x1="0" y1="0" x2="0" y2="1">
      <stop offset="0%" stop-color="#dce7dc"/>
      <stop offset="100%" stop-color="#ccd9cb"/>
    </linearGradient>
    <filter id="grain" x="-20%" y="-20%" width="140%" height="140%">
      <feTurbulence type="fractalNoise" baseFrequency="0.74" numOctaves="2" seed="36"/>
      <feColorMatrix type="saturate" values="0"/>
      <feComponentTransfer><feFuncA type="table" tableValues="0 0.03"/></feComponentTransfer>
    </filter>
  </defs>
  <rect width="1400" height="900" fill="url(#bg)"/>
  <rect x="0" y="662" width="1400" height="238" fill="#87a088"/>

  <rect x="164" y="200" width="1072" height="260" rx="24" fill="#f7faf7" stroke="#adc0ad" stroke-width="6"/>
  <text x="700" y="270" text-anchor="middle" font-family="Georgia, serif" font-size="44" fill="#3d5f45">National Expo — Team Greenfield</text>
  <text x="700" y="332" text-anchor="middle" font-family="Georgia, serif" font-size="34" fill="#5f7b65">Third Place • Biggest Growth Award</text>

  <g transform="translate(700 390)">
    <circle cx="0" cy="0" r="56" fill="#d7b45e"/>
    <circle cx="0" cy="0" r="36" fill="#f4ecd3"/>
    <text x="0" y="12" text-anchor="middle" font-family="Georgia, serif" font-size="38" fill="#756128">3</text>
  </g>

  <g transform="translate(420 674)"><ellipse cx="0" cy="70" rx="26" ry="9" fill="#6d7f8d" opacity="0.24"/><ellipse cx="0" cy="-2" rx="17" ry="20" fill="#d8b39e"/><path d="M-18 -8 Q0 -34 18 -8" fill="#2f2f35"/><path d="M-20 18 Q0 10 20 18 L16 50 Q0 58 -16 50 Z" fill="#5c7759"/></g>
  <g transform="translate(520 674)"><ellipse cx="0" cy="70" rx="26" ry="9" fill="#6d7f8d" opacity="0.24"/><ellipse cx="0" cy="-2" rx="17" ry="20" fill="#9a6648"/><circle cx="0" cy="-24" r="18" fill="#2f2524"/><circle cx="8" cy="-36" r="7" fill="#f1d85b"/><path d="M-20 18 Q0 10 20 18 L16 50 Q0 58 -16 50 Z" fill="#e38734"/></g>
  <g transform="translate(620 674)"><ellipse cx="0" cy="70" rx="26" ry="9" fill="#6d7f8d" opacity="0.24"/><ellipse cx="0" cy="-2" rx="17" ry="20" fill="#b77d5b"/><path d="M-18 -8 Q0 -32 18 -8" fill="#2e2b2b"/><circle cx="-6" cy="-2" r="5" fill="none" stroke="#54616c" stroke-width="2"/><circle cx="6" cy="-2" r="5" fill="none" stroke="#54616c" stroke-width="2"/><path d="M-20 18 Q0 10 20 18 L16 50 Q0 58 -16 50 Z" fill="#ccd7e2"/></g>
  <g transform="translate(720 674)"><ellipse cx="0" cy="70" rx="26" ry="9" fill="#6d7f8d" opacity="0.24"/><ellipse cx="0" cy="-2" rx="17" ry="20" fill="#deb49a"/><rect x="-18" y="-14" width="36" height="10" rx="4" fill="#2c2f38"/><path d="M-20 18 Q0 10 20 18 L16 50 Q0 58 -16 50 Z" fill="#bc8f9c"/></g>
  <g transform="translate(820 674)"><ellipse cx="0" cy="70" rx="26" ry="9" fill="#6d7f8d" opacity="0.24"/><ellipse cx="0" cy="-2" rx="19" ry="22" fill="#c99373"/><path d="M-22 -8 Q0 -36 22 -8" fill="#2e2a2a"/><path d="M-22 18 Q0 10 22 18 L18 54 Q0 64 -18 54 Z" fill="#656a73"/></g>

  <text x="700" y="98" text-anchor="middle" font-family="Georgia, serif" font-size="52" fill="#35513e">Three Months Later</text>
  <text x="700" y="150" text-anchor="middle" font-family="Georgia, serif" font-size="30" fill="#546f5b">They didn't just build a bridge. They built each other.</text>
  <rect width="1400" height="900" filter="url(#grain)"/>
</svg>
