<?xml version="1.0" encoding="UTF-8"?>
<svg xmlns="http://www.w3.org/2000/svg" width="840" height="980" viewBox="0 0 840 980" role="img" aria-label="Portrait of Sofia Okonkwo">
  <defs>
    <linearGradient id="bg" x1="0" y1="0" x2="0" y2="1">
      <stop offset="0%" stop-color="#fff0d8"/>
      <stop offset="100%" stop-color="#f6dfbf"/>
    </linearGradient>
    <linearGradient id="hoodie" x1="0" y1="0" x2="1" y2="1">
      <stop offset="0%" stop-color="#ef8f3f"/>
      <stop offset="100%" stop-color="#cf6828"/>
    </linearGradient>
    <filter id="grain" x="-20%" y="-20%" width="140%" height="140%">
      <feTurbulence type="fractalNoise" baseFrequency="0.74" numOctaves="2" seed="10"/>
      <feColorMatrix type="saturate" values="0"/>
      <feComponentTransfer><feFuncA type="table" tableValues="0 0.034"/></feComponentTransfer>
    </filter>
  </defs>
  <rect width="840" height="980" fill="url(#bg)"/>
  <circle cx="130" cy="190" r="170" fill="#ffffff" opacity="0.15"/>
  <circle cx="680" cy="830" r="160" fill="#f0c89a" opacity="0.18"/>
  <rect width="840" height="980" filter="url(#grain)"/>

  <g transform="translate(420 530)">
    <ellipse cx="0" cy="312" rx="176" ry="42" fill="#8f7a63" opacity="0.2"/>

    <circle cx="0" cy="-222" r="112" fill="#2f2524"/>
    <circle cx="0" cy="-220" r="96" fill="#2f2524"/>
    <circle cx="62" cy="-290" r="26" fill="#2f2524"/>
    <circle cx="62" cy="-290" r="13" fill="#f3d85d"/>

    <ellipse cx="0" cy="-174" rx="86" ry="104" fill="#9a6648"/>
    <ellipse cx="-30" cy="-174" rx="12" ry="9" fill="#fff"/>
    <ellipse cx="28" cy="-170" rx="12" ry="9" fill="#fff"/>
    <circle cx="-30" cy="-174" r="4" fill="#33241e"/>
    <circle cx="28" cy="-170" r="4" fill="#33241e"/>
    <path d="M-42 -146 Q-2 -120 38 -144" stroke="#6f4436" stroke-width="5" fill="none" stroke-linecap="round"/>
    <path d="M-16 -130 Q-4 -124 10 -132" stroke="#8a5a48" stroke-width="3" fill="none"/>

    <path d="M-210 -26 Q-124 -132 0 -142 Q138 -132 218 -22 L184 218 Q108 274 0 286 Q-116 274 -184 218 Z" fill="url(#hoodie)"/>
    <path d="M-40 -102 L40 -102 L28 284 L-28 284 Z" fill="#f6c397" opacity="0.2"/>

    <path d="M-228 22 Q-194 64 -186 128 Q-212 154 -242 134 Q-254 82 -228 22 Z" fill="#9a6648"/>
    <path d="M228 22 Q194 64 186 128 Q212 154 242 134 Q254 82 228 22 Z" fill="#9a6648"/>

    <rect x="-70" y="228" width="52" height="114" rx="12" fill="#4b5f77"/>
    <rect x="18" y="228" width="52" height="114" rx="12" fill="#4b5f77"/>
    <rect x="-88" y="342" width="70" height="28" rx="8" fill="#ffffff"/>
    <rect x="18" y="342" width="70" height="28" rx="8" fill="#ffffff"/>

    <rect x="122" y="88" width="104" height="130" rx="12" fill="#2c455c" transform="rotate(-8 174 153)"/>
    <rect x="130" y="100" width="88" height="104" rx="8" fill="#f4efe2" transform="rotate(-8 174 153)"/>
    <line x1="142" y1="128" x2="208" y2="118" stroke="#7c8797" stroke-width="4"/>
    <line x1="146" y1="146" x2="212" y2="136" stroke="#7c8797" stroke-width="4"/>
    <line x1="150" y1="164" x2="216" y2="154" stroke="#7c8797" stroke-width="4"/>

    <text x="0" y="386" text-anchor="middle" font-family="Georgia, serif" font-size="42" fill="#5b442d">Sofia Okonkwo</text>
  </g>
</svg>
