<?xml version="1.0" encoding="UTF-8"?>
<svg xmlns="http://www.w3.org/2000/svg" width="840" height="980" viewBox="0 0 840 980" role="img" aria-label="Portrait of Maya Larsson">
  <defs>
    <linearGradient id="bg" x1="0" y1="0" x2="0" y2="1">
      <stop offset="0%" stop-color="#efe6ea"/>
      <stop offset="100%" stop-color="#e4d8de"/>
    </linearGradient>
    <linearGradient id="top" x1="0" y1="0" x2="1" y2="1">
      <stop offset="0%" stop-color="#c79ba6"/>
      <stop offset="100%" stop-color="#b1848f"/>
    </linearGradient>
    <filter id="grain" x="-20%" y="-20%" width="140%" height="140%">
      <feTurbulence type="fractalNoise" baseFrequency="0.8" numOctaves="2" seed="22"/>
      <feColorMatrix type="saturate" values="0"/>
      <feComponentTransfer><feFuncA type="table" tableValues="0 0.034"/></feComponentTransfer>
    </filter>
  </defs>
  <rect width="840" height="980" fill="url(#bg)"/>
  <circle cx="170" cy="180" r="150" fill="#ffffff" opacity="0.16"/>
  <circle cx="700" cy="840" r="180" fill="#b59faf" opacity="0.16"/>
  <rect width="840" height="980" filter="url(#grain)"/>

  <g transform="translate(420 530)">
    <ellipse cx="0" cy="312" rx="170" ry="42" fill="#8e7b85" opacity="0.22"/>

    <ellipse cx="0" cy="-190" rx="88" ry="106" fill="#deb49a"/>
    <path d="M-98 -210 L98 -210 L84 -270 Q0 -320 -84 -270 Z" fill="#2c2f38"/>
    <rect x="-98" y="-210" width="196" height="52" rx="18" fill="#2c2f38"/>

    <circle cx="-26" cy="-186" r="5" fill="#b17859"/>
    <circle cx="-4" cy="-178" r="4" fill="#b17859"/>
    <circle cx="20" cy="-186" r="5" fill="#b17859"/>
    <circle cx="40" cy="-178" r="4" fill="#b17859"/>

    <ellipse cx="-28" cy="-172" rx="12" ry="8" fill="#fff"/>
    <ellipse cx="30" cy="-170" rx="12" ry="8" fill="#fff"/>
    <circle cx="-28" cy="-172" r="3.8" fill="#473126"/>
    <circle cx="30" cy="-170" r="3.8" fill="#473126"/>
    <path d="M-36 -144 Q-2 -126 34 -142" stroke="#8a6152" stroke-width="5" fill="none" stroke-linecap="round"/>

    <path d="M-200 -30 Q-122 -130 0 -142 Q126 -130 200 -30 L178 222 Q102 274 0 284 Q-108 274 -178 222 Z" fill="url(#top)"/>
    <path d="M-36 -110 L36 -110 L24 286 L-24 286 Z" fill="#f3ebe4" opacity="0.7"/>

    <path d="M-220 24 Q-186 64 -178 126 Q-200 150 -232 134 Q-248 84 -220 24 Z" fill="#deb49a"/>
    <path d="M220 24 Q186 64 178 126 Q200 150 232 134 Q248 84 220 24 Z" fill="#deb49a"/>

    <circle cx="-210" cy="126" r="11" fill="none" stroke="#c8ced8" stroke-width="4"/>
    <circle cx="-194" cy="126" r="7" fill="#9aabbd"/>
    <circle cx="-178" cy="126" r="7" fill="#d7b882"/>
    <circle cx="-162" cy="126" r="7" fill="#7d8fac"/>
    <circle cx="-146" cy="126" r="7" fill="#d49798"/>

    <rect x="-70" y="228" width="52" height="114" rx="12" fill="#526981"/>
    <rect x="18" y="228" width="52" height="114" rx="12" fill="#526981"/>

    <rect x="138" y="78" width="64" height="122" rx="24" fill="#8b6650"/>
    <rect x="146" y="90" width="48" height="74" rx="20" fill="#9bc2cf"/>
    <rect x="154" y="164" width="32" height="16" rx="6" fill="#7f604b"/>

    <text x="0" y="386" text-anchor="middle" font-family="Georgia, serif" font-size="42" fill="#5f3f4f">Maya Larsson</text>
  </g>
</svg>
