<?xml version="1.0" encoding="UTF-8"?>
<svg xmlns="http://www.w3.org/2000/svg" width="1400" height="900" viewBox="0 0 1400 900" role="img" aria-label="First conflict during team planning">
  <defs>
    <linearGradient id="bg" x1="0" y1="0" x2="0" y2="1">
      <stop offset="0%" stop-color="#f0e5d3"/>
      <stop offset="100%" stop-color="#e5d6be"/>
    </linearGradient>
    <filter id="grain" x="-20%" y="-20%" width="140%" height="140%">
      <feTurbulence type="fractalNoise" baseFrequency="0.72" numOctaves="2" seed="9"/>
      <feColorMatrix type="saturate" values="0"/>
      <feComponentTransfer><feFuncA type="table" tableValues="0 0.03"/></feComponentTransfer>
    </filter>
  </defs>
  <rect width="1400" height="900" fill="url(#bg)"/>
  <rect x="0" y="660" width="1400" height="240" fill="#b78f6c"/>

  <rect x="220" y="360" width="960" height="170" rx="20" fill="#f9f6ee" stroke="#c7b79f" stroke-width="6"/>
  <rect x="260" y="386" width="230" height="122" rx="12" fill="#e9f0f5" stroke="#8aa4bc" stroke-width="4"/>
  <path d="M284 470 L356 406 L438 470" fill="none" stroke="#5d84ab" stroke-width="6"/>
  <text x="374" y="500" text-anchor="middle" font-family="Georgia, serif" font-size="22" fill="#4d6d88">Sofia's design</text>

  <rect x="544" y="386" width="230" height="122" rx="12" fill="#f4f0e6" stroke="#b3a07c" stroke-width="4"/>
  <line x1="570" y1="420" x2="744" y2="420" stroke="#87929c" stroke-width="4"/>
  <line x1="570" y1="446" x2="744" y2="446" stroke="#87929c" stroke-width="4"/>
  <line x1="570" y1="472" x2="744" y2="472" stroke="#87929c" stroke-width="4"/>
  <text x="658" y="500" text-anchor="middle" font-family="Georgia, serif" font-size="22" fill="#6b6f74">Rohan's maths</text>

  <rect x="832" y="386" width="310" height="122" rx="12" fill="#ede8df" stroke="#b6a993" stroke-width="4"/>
  <text x="987" y="436" text-anchor="middle" font-family="Georgia, serif" font-size="30" fill="#5b5250">"Do something"</text>
  <text x="987" y="472" text-anchor="middle" font-family="Georgia, serif" font-size="24" fill="#7b6e68">Kai steps in</text>

  <g transform="translate(344 640)">
    <ellipse cx="0" cy="86" rx="32" ry="10" fill="#667b88" opacity="0.25"/>
    <circle cx="0" cy="-20" r="20" fill="#2f2524"/><circle cx="10" cy="-34" r="8" fill="#f1d85b"/>
    <ellipse cx="0" cy="0" rx="18" ry="22" fill="#9a6648"/>
    <path d="M-22 20 Q0 10 22 20 L18 58 Q0 66 -18 58 Z" fill="#e38734"/>
    <path d="M-12 60 L-4 60 L-4 88 L-12 88 Z" fill="#42596f"/><path d="M4 60 L12 60 L12 88 L4 88 Z" fill="#42596f"/>
    <path d="M-28 26 L-46 8" stroke="#9a6648" stroke-width="6" stroke-linecap="round"/>
    <path d="M28 26 L48 6" stroke="#9a6648" stroke-width="6" stroke-linecap="round"/>
  </g>
  <g transform="translate(650 640)">
    <ellipse cx="0" cy="86" rx="32" ry="10" fill="#667b88" opacity="0.25"/>
    <ellipse cx="0" cy="0" rx="18" ry="22" fill="#b77d5b"/>
    <path d="M-20 -8 Q0 -36 20 -8" fill="#2e2b2b"/>
    <circle cx="-7" cy="0" r="6" fill="none" stroke="#54616c" stroke-width="2"/><circle cx="7" cy="0" r="6" fill="none" stroke="#54616c" stroke-width="2"/>
    <path d="M-20 20 Q0 10 20 20 L18 58 Q0 66 -18 58 Z" fill="#ccd7e2"/>
    <path d="M-12 60 L-4 60 L-4 88 L-12 88 Z" fill="#3f556d"/><path d="M4 60 L12 60 L12 88 L4 88 Z" fill="#3f556d"/>
  </g>
  <g transform="translate(980 642)">
    <ellipse cx="0" cy="84" rx="32" ry="10" fill="#667b88" opacity="0.25"/>
    <ellipse cx="0" cy="0" rx="18" ry="22" fill="#d8b39e"/>
    <path d="M-20 -10 Q0 -38 20 -10" fill="#2f2f35"/>
    <path d="M-20 20 Q0 10 20 20 L18 58 Q0 66 -18 58 Z" fill="#5c7759"/>
    <path d="M-12 60 L-4 60 L-4 88 L-12 88 Z" fill="#42596f"/><path d="M4 60 L12 60 L12 88 L4 88 Z" fill="#42596f"/>
  </g>

  <text x="700" y="104" text-anchor="middle" font-family="Georgia, serif" font-size="52" fill="#564637">The First Crack</text>
  <text x="700" y="154" text-anchor="middle" font-family="Georgia, serif" font-size="30" fill="#786b5f">Creativity met maths. Tension met leadership.</text>
  <rect width="1400" height="900" filter="url(#grain)"/>
</svg>
