<?xml version="1.0" encoding="UTF-8"?>
<svg xmlns="http://www.w3.org/2000/svg" width="1400" height="900" viewBox="0 0 1400 900" role="img" aria-label="Bridge arch cracked during stress test">
  <defs>
    <linearGradient id="bg" x1="0" y1="0" x2="0" y2="1">
      <stop offset="0%" stop-color="#e7d8ce"/>
      <stop offset="100%" stop-color="#d9c2b2"/>
    </linearGradient>
    <filter id="grain" x="-20%" y="-20%" width="140%" height="140%">
      <feTurbulence type="fractalNoise" baseFrequency="0.76" numOctaves="2" seed="17"/>
      <feColorMatrix type="saturate" values="0"/>
      <feComponentTransfer><feFuncA type="table" tableValues="0 0.03"/></feComponentTransfer>
    </filter>
  </defs>
  <rect width="1400" height="900" fill="url(#bg)"/>
  <rect x="0" y="664" width="1400" height="236" fill="#a57d62"/>

  <rect x="210" y="520" width="980" height="54" rx="16" fill="#6f5a4f"/>
  <path d="M280 520 Q700 216 1120 520" fill="none" stroke="#d8c9b0" stroke-width="24"/>
  <path d="M698 316 L738 366" stroke="#8e4e4e" stroke-width="10"/>
  <path d="M734 316 L694 366" stroke="#8e4e4e" stroke-width="10"/>
  <line x1="716" y1="332" x2="716" y2="560" stroke="#c4b099" stroke-width="14"/>

  <rect x="642" y="270" width="150" height="86" rx="10" fill="#f5efe0" stroke="#bfae95" stroke-width="4"/>
  <text x="717" y="322" text-anchor="middle" font-family="Georgia, serif" font-size="32" fill="#7f3f3f">CRACK</text>

  <g transform="translate(360 660)">
    <ellipse cx="0" cy="80" rx="28" ry="10" fill="#657889" opacity="0.25"/>
    <circle cx="0" cy="-10" r="20" fill="#2f2524"/><circle cx="10" cy="-24" r="8" fill="#f1d85b"/>
    <ellipse cx="0" cy="6" rx="18" ry="22" fill="#9a6648"/>
    <path d="M-22 28 Q0 18 22 28 L18 62 Q0 70 -18 62 Z" fill="#e38734"/>
  </g>
  <g transform="translate(470 662)">
    <ellipse cx="0" cy="78" rx="28" ry="10" fill="#657889" opacity="0.25"/>
    <ellipse cx="0" cy="4" rx="18" ry="22" fill="#b77d5b"/>
    <path d="M-20 -6 Q0 -34 20 -6" fill="#2e2b2b"/>
    <circle cx="-7" cy="4" r="6" fill="none" stroke="#54616c" stroke-width="2"/><circle cx="7" cy="4" r="6" fill="none" stroke="#54616c" stroke-width="2"/>
    <path d="M-22 26 Q0 16 22 26 L18 60 Q0 68 -18 60 Z" fill="#ccd7e2"/>
  </g>
  <g transform="translate(1050 662)">
    <ellipse cx="0" cy="78" rx="28" ry="10" fill="#657889" opacity="0.25"/>
    <ellipse cx="0" cy="4" rx="20" ry="24" fill="#c99373"/>
    <path d="M-24 -4 Q0 -40 24 -4" fill="#2e2a2a"/>
    <path d="M-24 26 Q0 16 24 26 L20 62 Q0 74 -20 62 Z" fill="#656a73"/>
  </g>

  <text x="700" y="102" text-anchor="middle" font-family="Georgia, serif" font-size="52" fill="#5d3a34">When Everything Went Wrong</text>
  <text x="700" y="156" text-anchor="middle" font-family="Georgia, serif" font-size="30" fill="#7a5850">The arch failed. The team had 72 hours.</text>
  <rect width="1400" height="900" filter="url(#grain)"/>
</svg>
