<?xml version="1.0" encoding="UTF-8"?>
<svg xmlns="http://www.w3.org/2000/svg" width="1400" height="900" viewBox="0 0 1400 900" role="img" aria-label="Maya talks to Jake after meeting">
  <defs>
    <linearGradient id="bg" x1="0" y1="0" x2="0" y2="1">
      <stop offset="0%" stop-color="#dde6eb"/>
      <stop offset="100%" stop-color="#cdd9e1"/>
    </linearGradient>
    <filter id="grain" x="-20%" y="-20%" width="140%" height="140%">
      <feTurbulence type="fractalNoise" baseFrequency="0.78" numOctaves="2" seed="13"/>
      <feColorMatrix type="saturate" values="0"/>
      <feComponentTransfer><feFuncA type="table" tableValues="0 0.03"/></feComponentTransfer>
    </filter>
  </defs>
  <rect width="1400" height="900" fill="url(#bg)"/>
  <rect x="0" y="640" width="1400" height="260" fill="#8b9aa6"/>
  <rect x="130" y="200" width="1140" height="330" rx="28" fill="#f4f6f8" stroke="#b9c4cc" stroke-width="6"/>
  <rect x="330" y="510" width="740" height="30" rx="12" fill="#7a5c47"/>
  <rect x="380" y="418" width="26" height="116" fill="#7a5c47"/>
  <rect x="994" y="418" width="26" height="116" fill="#7a5c47"/>

  <g transform="translate(650 538)">
    <ellipse cx="0" cy="94" rx="34" ry="10" fill="#5f7080" opacity="0.26"/>
    <ellipse cx="0" cy="-2" rx="20" ry="24" fill="#deb49a"/>
    <rect x="-22" y="-16" width="44" height="12" rx="4" fill="#2c2f38"/>
    <path d="M-26 22 Q0 10 26 22 L22 66 Q0 76 -22 66 Z" fill="#bc8f9c"/>
    <path d="M-14 68 L-4 68 L-4 100 L-14 100 Z" fill="#526981"/><path d="M4 68 L14 68 L14 100 L4 100 Z" fill="#526981"/>
    <rect x="24" y="26" width="24" height="52" rx="8" fill="#8b6650"/>
  </g>

  <g transform="translate(820 540)">
    <ellipse cx="0" cy="96" rx="38" ry="12" fill="#5f7080" opacity="0.26"/>
    <ellipse cx="0" cy="0" rx="22" ry="26" fill="#c99373"/>
    <path d="M-26 -8 Q0 -44 26 -8" fill="#2e2a2a"/>
    <line x1="-8" y1="-10" x2="4" y2="-18" stroke="#a66d5a" stroke-width="3"/>
    <path d="M-28 26 Q0 12 28 26 L24 72 Q0 84 -24 72 Z" fill="#656a73"/>
    <path d="M-16 74 L-5 74 L-5 108 L-16 108 Z" fill="#2f3339"/><path d="M5 74 L16 74 L16 108 L5 108 Z" fill="#2f3339"/>
    <path d="M-30 42 L-52 38" stroke="#c99373" stroke-width="6" stroke-linecap="round"/>
  </g>

  <rect x="930" y="260" width="250" height="160" rx="14" fill="#f8f4eb" stroke="#cbbca5" stroke-width="4"/>
  <path d="M960 372 L1080 298 L1148 372" fill="none" stroke="#6d8ba6" stroke-width="6"/>
  <text x="1055" y="406" text-anchor="middle" font-family="Georgia, serif" font-size="24" fill="#596473">Reinforced base + carrying case</text>

  <text x="700" y="100" text-anchor="middle" font-family="Georgia, serif" font-size="52" fill="#2f4d65">Unlocking Jake</text>
  <text x="700" y="152" text-anchor="middle" font-family="Georgia, serif" font-size="30" fill="#5f7484">Trust reopened the door to experience.</text>
  <rect width="1400" height="900" filter="url(#grain)"/>
</svg>
