<?xml version="1.0" encoding="UTF-8"?>
<svg xmlns="http://www.w3.org/2000/svg" width="840" height="980" viewBox="0 0 840 980" role="img" aria-label="Portrait of Rohan Pillai">
  <defs>
    <linearGradient id="bg" x1="0" y1="0" x2="0" y2="1">
      <stop offset="0%" stop-color="#e4edf2"/>
      <stop offset="100%" stop-color="#d1dce5"/>
    </linearGradient>
    <pattern id="check" width="20" height="20" patternUnits="userSpaceOnUse">
      <rect width="20" height="20" fill="#e9edf2"/>
      <path d="M0 0 H20 M0 10 H20 M0 20 H20" stroke="#9daec0" stroke-width="2"/>
      <path d="M0 0 V20 M10 0 V20 M20 0 V20" stroke="#8ea0b4" stroke-width="1.6"/>
    </pattern>
    <filter id="grain" x="-20%" y="-20%" width="140%" height="140%">
      <feTurbulence type="fractalNoise" baseFrequency="0.78" numOctaves="2" seed="19"/>
      <feColorMatrix type="saturate" values="0"/>
      <feComponentTransfer><feFuncA type="table" tableValues="0 0.03"/></feComponentTransfer>
    </filter>
  </defs>
  <rect width="840" height="980" fill="url(#bg)"/>
  <circle cx="150" cy="170" r="130" fill="#ffffff" opacity="0.16"/>
  <circle cx="700" cy="860" r="180" fill="#9eb2c2" opacity="0.18"/>
  <rect width="840" height="980" filter="url(#grain)"/>

  <g transform="translate(420 530)">
    <ellipse cx="0" cy="310" rx="164" ry="38" fill="#5f7380" opacity="0.22"/>
    <ellipse cx="0" cy="-190" rx="82" ry="102" fill="#b77d5b"/>
    <path d="M-88 -214 Q-68 -302 0 -316 Q66 -302 90 -214 Q54 -244 0 -244 Q-56 -244 -88 -214 Z" fill="#2f2c2c"/>
    <path d="M-16 -284 Q8 -302 28 -282" stroke="#2f2c2c" stroke-width="8" fill="none" stroke-linecap="round"/>

    <circle cx="-30" cy="-184" r="24" fill="none" stroke="#54616c" stroke-width="4"/>
    <circle cx="30" cy="-180" r="24" fill="none" stroke="#54616c" stroke-width="4"/>
    <line x1="-6" y1="-183" x2="6" y2="-181" stroke="#54616c" stroke-width="4"/>
    <line x1="-54" y1="-202" x2="-74" y2="-210" stroke="#54616c" stroke-width="4"/>

    <ellipse cx="-30" cy="-184" rx="8" ry="6" fill="#fff"/>
    <ellipse cx="30" cy="-180" rx="8" ry="6" fill="#fff"/>
    <circle cx="-30" cy="-184" r="3" fill="#2c201b"/>
    <circle cx="30" cy="-180" r="3" fill="#2c201b"/>
    <path d="M-30 -150 Q0 -136 30 -150" stroke="#6f4a3d" stroke-width="4" fill="none" stroke-linecap="round"/>

    <path d="M-200 -30 Q-122 -130 0 -142 Q124 -130 200 -30 L176 220 Q102 272 0 282 Q-102 272 -176 220 Z" fill="url(#check)"/>
    <rect x="-26" y="-118" width="52" height="400" fill="#e9edf2"/>
    <circle cx="0" cy="-58" r="6" fill="#74869b"/>
    <circle cx="0" cy="-12" r="6" fill="#74869b"/>
    <circle cx="0" cy="34" r="6" fill="#74869b"/>

    <path d="M-220 24 Q-186 62 -178 124 Q-202 150 -234 132 Q-250 84 -220 24 Z" fill="#b77d5b"/>
    <path d="M220 24 Q186 62 178 124 Q202 150 234 132 Q250 84 220 24 Z" fill="#b77d5b"/>

    <rect x="-70" y="228" width="52" height="114" rx="12" fill="#3f556d"/>
    <rect x="18" y="228" width="52" height="114" rx="12" fill="#3f556d"/>

    <rect x="-196" y="100" width="40" height="40" rx="8" fill="#2c3642"/>
    <rect x="-190" y="106" width="28" height="28" rx="4" fill="#bcd5ee"/>
    <line x1="-176" y1="116" x2="-176" y2="128" stroke="#2d4560" stroke-width="2"/>
    <line x1="-184" y1="120" x2="-168" y2="120" stroke="#2d4560" stroke-width="2"/>

    <text x="0" y="386" text-anchor="middle" font-family="Georgia, serif" font-size="42" fill="#31475d">Rohan Pillai</text>
  </g>
</svg>
