<?xml version="1.0" encoding="UTF-8"?>
<svg xmlns="http://www.w3.org/2000/svg" width="1400" height="900" viewBox="0 0 1400 900" role="img" aria-label="Ella Led Everyone To Safety">

  <defs>
    <linearGradient id="bg" x1="0" y1="0" x2="0" y2="1">
      <stop offset="0%" stop-color="#3f6a4b"/>
      <stop offset="55%" stop-color="#5c9466"/>
      <stop offset="100%" stop-color="#97c59a"/>
    </linearGradient>
  </defs>
  <rect width="1400" height="900" fill="url(#bg)"/>
  <path d="M0 620 C200 560 340 660 540 618 C730 578 950 668 1200 616 C1290 598 1350 608 1400 620 L1400 900 L0 900 Z" fill="rgba(36,62,52,0.26)"/>
  <path d="M0 690 C210 640 380 724 600 682 C820 640 1030 730 1260 688 C1330 676 1380 684 1400 690 L1400 900 L0 900 Z" fill="rgba(24,45,38,0.34)"/>
  <g fill="#ffffff" opacity="0.22">
    <circle cx="120" cy="100" r="6"/><circle cx="280" cy="88" r="5"/><circle cx="510" cy="120" r="6"/>
    <circle cx="760" cy="92" r="6"/><circle cx="980" cy="110" r="5"/><circle cx="1220" cy="96" r="6"/>
  </g>

  <path d="M120 740 C360 660 560 700 740 640 C900 586 1080 620 1280 560" stroke="#8e6f4b" stroke-width="34" fill="none"/>
  <g transform="translate(670 620) scale(1.9)">
    <ellipse cx="0" cy="0" rx="72" ry="44" fill="#8b97a8"/>
    <circle cx="62" cy="-18" r="28" fill="#8b97a8"/>
    <ellipse cx="82" cy="-10" rx="14" ry="30" fill="#8b97a8"/>
    <circle cx="72" cy="-22" r="4" fill="#24364a"/>
    <circle cx="48" cy="-22" r="16" fill="#98a4b5"/>
    <rect x="-48" y="34" width="18" height="40" rx="8" fill="#8b97a8"/>
    <rect x="-20" y="34" width="18" height="40" rx="8" fill="#8b97a8"/>
    <rect x="10" y="34" width="18" height="40" rx="8" fill="#8b97a8"/>
    <rect x="38" y="34" width="18" height="40" rx="8" fill="#8b97a8"/>
  </g>
  <g>
    <ellipse cx="500" cy="700" rx="20" ry="14" fill="#c8b49a"/><circle cx="516" cy="692" r="9" fill="#c8b49a"/>
    <ellipse cx="840" cy="676" rx="22" ry="15" fill="#a06f41"/><circle cx="858" cy="668" r="9" fill="#a06f41"/>
    <ellipse cx="930" cy="648" rx="19" ry="13" fill="#d9d9d9"/>
  </g>

  <text x="700" y="110" text-anchor="middle" font-family="Nunito, sans-serif" font-size="52" font-weight="900" fill="#fff6e5">Ella Led Everyone To Safety</text>
  <text x="700" y="844" text-anchor="middle" font-family="Nunito, sans-serif" font-size="32" font-weight="800" fill="#fff6e5">Loyal friendship and memory saved the jungle.</text>
</svg>
