<?xml version="1.0" encoding="UTF-8"?>
<svg xmlns="http://www.w3.org/2000/svg" width="1400" height="900" viewBox="0 0 1400 900" role="img" aria-label="Mia Sat Quietly By The Sea">

  <defs>
    <linearGradient id="bg" x1="0" y1="0" x2="0" y2="1">
      <stop offset="0%" stop-color="#355b8c"/>
      <stop offset="55%" stop-color="#4e83b7"/>
      <stop offset="100%" stop-color="#8ec0de"/>
    </linearGradient>
  </defs>
  <rect width="1400" height="900" fill="url(#bg)"/>
  <path d="M0 620 C200 560 340 660 540 618 C730 578 950 668 1200 616 C1290 598 1350 608 1400 620 L1400 900 L0 900 Z" fill="rgba(36,62,52,0.26)"/>
  <path d="M0 690 C210 640 380 724 600 682 C820 640 1030 730 1260 688 C1330 676 1380 684 1400 690 L1400 900 L0 900 Z" fill="rgba(24,45,38,0.34)"/>
  <g fill="#ffffff" opacity="0.22">
    <circle cx="120" cy="100" r="6"/><circle cx="280" cy="88" r="5"/><circle cx="510" cy="120" r="6"/>
    <circle cx="760" cy="92" r="6"/><circle cx="980" cy="110" r="5"/><circle cx="1220" cy="96" r="6"/>
  </g>

  <path d="M0 640 C190 600 360 690 560 648 C760 606 980 700 1220 650 C1300 632 1360 640 1400 646 L1400 900 L0 900 Z" fill="#3a7eb5"/>
  <path d="M0 688 C180 660 370 730 560 700 C760 668 960 742 1180 700 C1290 680 1360 686 1400 692" stroke="#c3e9ff" stroke-width="12" fill="none" opacity="0.6"/>
  <ellipse cx="290" cy="620" rx="130" ry="70" fill="#6a7e95"/>
  <g transform="translate(310 590) scale(1.8)">
    <circle cx="0" cy="-58" r="24" fill="#ffd8b1"/>
    <path d="M-22 -65 Q0 -96 22 -65" fill="#7a4f32"/>
    <circle cx="-8" cy="-58" r="3.5" fill="#2e3d57"/>
    <circle cx="8" cy="-58" r="3.5" fill="#2e3d57"/>
    <path d="M-8 -46 Q0 -40 8 -46" stroke="#2e3d57" stroke-width="3" fill="none" stroke-linecap="round"/>
    <rect x="-20" y="-32" width="40" height="58" rx="12" fill="#6d8fc0"/>
    <rect x="-30" y="-26" width="10" height="46" rx="5" fill="#6d8fc0"/>
    <rect x="20" y="-26" width="10" height="46" rx="5" fill="#6d8fc0"/>
    <rect x="-16" y="24" width="12" height="34" rx="6" fill="#2f649f"/>
    <rect x="4" y="24" width="12" height="34" rx="6" fill="#2f649f"/>
  </g>

  <text x="700" y="110" text-anchor="middle" font-family="Nunito, sans-serif" font-size="52" font-weight="900" fill="#fff6e5">Mia Sat Quietly By The Sea</text>
  <text x="700" y="844" text-anchor="middle" font-family="Nunito, sans-serif" font-size="32" font-weight="800" fill="#fff6e5">She came to the shore feeling lonely and sad.</text>
</svg>
