<svg xmlns="http://www.w3.org/2000/svg" width="1200" height="700" viewBox="0 0 1200 700" role="img" aria-label="Cartoon magical kindness garden full of glowing plants and hearts">
  <defs>
    <linearGradient id="bg" x1="0" y1="0" x2="0" y2="1">
      <stop offset="0%" stop-color="#213b73"/>
      <stop offset="45%" stop-color="#5a6fd1"/>
      <stop offset="100%" stop-color="#9adcb9"/>
    </linearGradient>
    <radialGradient id="magic" cx="50%" cy="52%" r="40%">
      <stop offset="0%" stop-color="#ffe77b" stop-opacity="0.55"/>
      <stop offset="100%" stop-color="#ffe77b" stop-opacity="0"/>
    </radialGradient>
  </defs>

  <rect width="1200" height="700" fill="url(#bg)"/>
  <rect width="1200" height="700" fill="url(#magic)"/>

  <g fill="#fff" opacity="0.9">
    <circle cx="120" cy="110" r="3"/>
    <circle cx="210" cy="88" r="2.5"/>
    <circle cx="360" cy="135" r="2"/>
    <circle cx="540" cy="72" r="2.4"/>
    <circle cx="690" cy="116" r="2.1"/>
    <circle cx="870" cy="84" r="2.6"/>
    <circle cx="1040" cy="130" r="2.2"/>
  </g>

  <rect y="430" width="1200" height="270" fill="#3f874a"/>
  <path d="M0 474 C170 452 286 512 454 482 C612 456 780 524 964 488 C1080 466 1140 500 1200 492 L1200 700 L0 700 Z" fill="#2f6f3b"/>

  <g>
    <rect x="168" y="440" width="18" height="128" rx="8" fill="#6e4429"/>
    <circle cx="177" cy="412" r="38" fill="#7ae25f"/>
    <circle cx="152" cy="420" r="26" fill="#90ef72"/>
    <circle cx="198" cy="424" r="24" fill="#90ef72"/>
    <circle cx="174" cy="404" r="13" fill="#ff7eb6"/>
  </g>

  <g>
    <rect x="352" y="426" width="22" height="146" rx="10" fill="#6e4429"/>
    <circle cx="364" cy="392" r="52" fill="#83ea66"/>
    <circle cx="330" cy="404" r="34" fill="#9af47d"/>
    <circle cx="398" cy="406" r="32" fill="#9af47d"/>
    <circle cx="356" cy="387" r="14" fill="#ffd86c"/>
    <circle cx="374" cy="396" r="11" fill="#ffd86c"/>
  </g>

  <g>
    <rect x="560" y="446" width="16" height="108" rx="8" fill="#6e4429"/>
    <circle cx="568" cy="420" r="34" fill="#7ee763"/>
    <circle cx="546" cy="428" r="22" fill="#95f379"/>
    <circle cx="590" cy="430" r="20" fill="#95f379"/>
    <path d="M558 412 C568 395 584 398 592 410 C582 420 570 424 558 412 Z" fill="#ff80b6"/>
  </g>

  <g>
    <rect x="748" y="432" width="20" height="138" rx="9" fill="#6e4429"/>
    <circle cx="758" cy="396" r="48" fill="#79e45f"/>
    <circle cx="726" cy="406" r="32" fill="#90ef72"/>
    <circle cx="790" cy="410" r="30" fill="#90ef72"/>
    <circle cx="746" cy="390" r="12" fill="#ffd86c"/>
    <circle cx="768" cy="400" r="10" fill="#ffd86c"/>
    <circle cx="758" cy="418" r="9" fill="#ffd86c"/>
  </g>

  <g>
    <rect x="956" y="442" width="18" height="122" rx="8" fill="#6e4429"/>
    <circle cx="965" cy="410" r="40" fill="#80e765"/>
    <circle cx="940" cy="418" r="26" fill="#95f379"/>
    <circle cx="988" cy="422" r="24" fill="#95f379"/>
    <path d="M956 404 C966 387 982 389 990 402 C980 412 968 417 956 404 Z" fill="#ff80b6"/>
  </g>

  <text x="600" y="630" text-anchor="middle" font-family="Nunito, sans-serif" font-size="38" font-weight="800" fill="#f5ffe7">Kindness garden grows brighter each day</text>
</svg>
