<svg xmlns="http://www.w3.org/2000/svg" width="1200" height="700" viewBox="0 0 1200 700" role="img" aria-label="Cartoon boy planting a glowing kindness seed in a garden">
  <defs>
    <linearGradient id="sky" x1="0" y1="0" x2="0" y2="1">
      <stop offset="0%" stop-color="#8fd3ff"/>
      <stop offset="100%" stop-color="#dff6ff"/>
    </linearGradient>
    <linearGradient id="soil" x1="0" y1="0" x2="0" y2="1">
      <stop offset="0%" stop-color="#9e6a43"/>
      <stop offset="100%" stop-color="#6d4429"/>
    </linearGradient>
    <radialGradient id="seedGlow" cx="55%" cy="58%" r="20%">
      <stop offset="0%" stop-color="#ffe35a" stop-opacity="1"/>
      <stop offset="100%" stop-color="#ffe35a" stop-opacity="0"/>
    </radialGradient>
  </defs>

  <rect width="1200" height="700" fill="url(#sky)"/>
  <circle cx="980" cy="110" r="62" fill="#ffdf6f"/>

  <g fill="#fff" opacity="0.88">
    <ellipse cx="180" cy="126" rx="82" ry="34"/>
    <ellipse cx="246" cy="118" rx="92" ry="38"/>
    <ellipse cx="320" cy="130" rx="72" ry="30"/>

    <ellipse cx="710" cy="156" rx="70" ry="28"/>
    <ellipse cx="768" cy="148" rx="78" ry="32"/>
    <ellipse cx="828" cy="160" rx="66" ry="26"/>
  </g>

  <rect y="420" width="1200" height="280" fill="#79c66b"/>
  <path d="M0 465 C220 438 376 506 580 470 C786 438 954 506 1200 468 L1200 700 L0 700 Z" fill="url(#soil)"/>

  <ellipse cx="620" cy="470" rx="120" ry="48" fill="#6a3f24"/>
  <ellipse cx="620" cy="470" rx="86" ry="34" fill="#7d4d2f"/>
  <circle cx="620" cy="470" r="92" fill="url(#seedGlow)"/>
  <ellipse cx="620" cy="470" rx="14" ry="10" fill="#ffcf3f"/>

  <g transform="translate(432 318)">
    <circle cx="80" cy="58" r="34" fill="#ffd8b1"/>
    <rect x="52" y="92" width="58" height="88" rx="16" fill="#4d96ff"/>
    <rect x="24" y="102" width="34" height="74" rx="16" fill="#4d96ff"/>
    <rect x="104" y="102" width="34" height="74" rx="16" fill="#4d96ff"/>
    <rect x="64" y="178" width="18" height="68" rx="8" fill="#365f8f"/>
    <rect x="84" y="178" width="18" height="68" rx="8" fill="#365f8f"/>
    <circle cx="68" cy="58" r="4" fill="#2f3d57"/>
    <circle cx="92" cy="58" r="4" fill="#2f3d57"/>
    <path d="M67 74 Q80 85 93 74" stroke="#2f3d57" stroke-width="4" fill="none" stroke-linecap="round"/>
  </g>

  <g fill="#9be67f">
    <circle cx="120" cy="520" r="24"/>
    <circle cx="180" cy="540" r="18"/>
    <circle cx="980" cy="530" r="28"/>
    <circle cx="1040" cy="548" r="20"/>
    <circle cx="895" cy="556" r="16"/>
  </g>

  <text x="620" y="620" text-anchor="middle" font-family="Nunito, sans-serif" font-size="38" font-weight="800" fill="#f8f4de">Every kind act plants a seed</text>
</svg>
