<?xml version="1.0" encoding="UTF-8"?>
<svg xmlns="http://www.w3.org/2000/svg" width="1400" height="900" viewBox="0 0 1400 900" role="img" aria-label="A Lantern In The Forest">

  <defs>
    <linearGradient id="bg" x1="0" y1="0" x2="0" y2="1">
      <stop offset="0%" stop-color="#3c4f74"/>
      <stop offset="55%" stop-color="#596a96"/>
      <stop offset="100%" stop-color="#8ea0be"/>
    </linearGradient>
  </defs>
  <rect width="1400" height="900" fill="url(#bg)"/>
  <path d="M0 620 C200 560 340 660 540 618 C730 578 950 668 1200 616 C1290 598 1350 608 1400 620 L1400 900 L0 900 Z" fill="rgba(36,62,52,0.26)"/>
  <path d="M0 690 C210 640 380 724 600 682 C820 640 1030 730 1260 688 C1330 676 1380 684 1400 690 L1400 900 L0 900 Z" fill="rgba(24,45,38,0.34)"/>
  <g fill="#ffffff" opacity="0.22">
    <circle cx="120" cy="100" r="6"/><circle cx="280" cy="88" r="5"/><circle cx="510" cy="120" r="6"/>
    <circle cx="760" cy="92" r="6"/><circle cx="980" cy="110" r="5"/><circle cx="1220" cy="96" r="6"/>
  </g>

  <g transform="translate(200 560) scale(1.3)">
    <rect x="-12" y="-16" width="24" height="120" rx="10" fill="#7a4f32"/>
    <circle cx="0" cy="-50" r="52" fill="#4d8056"/>
    <circle cx="-42" cy="-32" r="34" fill="#63bc6d"/>
    <circle cx="40" cy="-28" r="32" fill="#63bc6d"/>
  </g><g transform="translate(1180 560) scale(1.3)">
    <rect x="-12" y="-16" width="24" height="120" rx="10" fill="#7a4f32"/>
    <circle cx="0" cy="-50" r="52" fill="#4d8056"/>
    <circle cx="-42" cy="-32" r="34" fill="#63bc6d"/>
    <circle cx="40" cy="-28" r="32" fill="#63bc6d"/>
  </g><g transform="translate(360 550) scale(1)">
    <rect x="-12" y="-16" width="24" height="120" rx="10" fill="#7a4f32"/>
    <circle cx="0" cy="-50" r="52" fill="#4d8056"/>
    <circle cx="-42" cy="-32" r="34" fill="#63bc6d"/>
    <circle cx="40" cy="-28" r="32" fill="#63bc6d"/>
  </g><g transform="translate(1040 550) scale(1)">
    <rect x="-12" y="-16" width="24" height="120" rx="10" fill="#7a4f32"/>
    <circle cx="0" cy="-50" r="52" fill="#4d8056"/>
    <circle cx="-42" cy="-32" r="34" fill="#63bc6d"/>
    <circle cx="40" cy="-28" r="32" fill="#63bc6d"/>
  </g>
  <g transform="translate(540 640) scale(1.7)">
    <circle cx="0" cy="-58" r="24" fill="#ffd8b1"/>
    <path d="M-22 -65 Q0 -96 22 -65" fill="#6b4b36"/>
    <circle cx="-8" cy="-58" r="3.5" fill="#2e3d57"/>
    <circle cx="8" cy="-58" r="3.5" fill="#2e3d57"/>
    <path d="M-8 -46 Q0 -40 8 -46" stroke="#2e3d57" stroke-width="3" fill="none" stroke-linecap="round"/>
    <rect x="-20" y="-32" width="40" height="58" rx="12" fill="#6bcb77"/>
    <rect x="-30" y="-26" width="10" height="46" rx="5" fill="#6bcb77"/>
    <rect x="20" y="-26" width="10" height="46" rx="5" fill="#6bcb77"/>
    <rect x="-16" y="24" width="12" height="34" rx="6" fill="#2f649f"/>
    <rect x="4" y="24" width="12" height="34" rx="6" fill="#2f649f"/>
  </g>
  <g transform="translate(680 640) scale(1.7)">
    <circle cx="0" cy="-58" r="24" fill="#ffd8b1"/>
    <path d="M-22 -65 Q0 -96 22 -65" fill="#5b3f2d"/>
    <circle cx="-8" cy="-58" r="3.5" fill="#2e3d57"/>
    <circle cx="8" cy="-58" r="3.5" fill="#2e3d57"/>
    <path d="M-8 -46 Q0 -40 8 -46" stroke="#2e3d57" stroke-width="3" fill="none" stroke-linecap="round"/>
    <rect x="-20" y="-32" width="40" height="58" rx="12" fill="#4d96ff"/>
    <rect x="-30" y="-26" width="10" height="46" rx="5" fill="#4d96ff"/>
    <rect x="20" y="-26" width="10" height="46" rx="5" fill="#4d96ff"/>
    <rect x="-16" y="24" width="12" height="34" rx="6" fill="#2f649f"/>
    <rect x="4" y="24" width="12" height="34" rx="6" fill="#2f649f"/>
  </g>
  <g transform="translate(820 640) scale(1.7)">
    <circle cx="0" cy="-58" r="24" fill="#ffd8b1"/>
    <path d="M-22 -65 Q0 -96 22 -65" fill="#6b4b36"/>
    <circle cx="-8" cy="-58" r="3.5" fill="#2e3d57"/>
    <circle cx="8" cy="-58" r="3.5" fill="#2e3d57"/>
    <path d="M-8 -46 Q0 -40 8 -46" stroke="#2e3d57" stroke-width="3" fill="none" stroke-linecap="round"/>
    <rect x="-20" y="-32" width="40" height="58" rx="12" fill="#f39c12"/>
    <rect x="-30" y="-26" width="10" height="46" rx="5" fill="#f39c12"/>
    <rect x="20" y="-26" width="10" height="46" rx="5" fill="#f39c12"/>
    <rect x="-16" y="24" width="12" height="34" rx="6" fill="#2f649f"/>
    <rect x="4" y="24" width="12" height="34" rx="6" fill="#2f649f"/>
  </g>
  <g transform="translate(700 430) scale(1.5)"><circle cx="0" cy="32" r="54" fill="#ffd66b" opacity="0.35"/>
    <line x1="0" y1="-36" x2="0" y2="-8" stroke="#e5e5e5" stroke-width="4"/>
    <rect x="-22" y="-8" width="44" height="72" rx="10" fill="#f3b448" stroke="#8b5b20" stroke-width="4"/>
    <rect x="-12" y="10" width="24" height="38" rx="6" fill="#fff6bf"/>
  </g>

  <text x="700" y="110" text-anchor="middle" font-family="Nunito, sans-serif" font-size="52" font-weight="900" fill="#fff6e5">A Lantern In The Forest</text>
  <text x="700" y="844" text-anchor="middle" font-family="Nunito, sans-serif" font-size="32" font-weight="800" fill="#fff6e5">Children found a light with a mysterious rule.</text>
</svg>
