<?xml version="1.0" encoding="UTF-8"?>
<svg xmlns="http://www.w3.org/2000/svg" width="1400" height="900" viewBox="0 0 1400 900" role="img" aria-label="Cooling unit restored gauge dropping">
  <defs>
    <linearGradient id="wash" x1="0" y1="0" x2="0" y2="1">
      <stop offset="0%" stop-color="#5f7890"/>
      <stop offset="52%" stop-color="#7f98b0"/>
      <stop offset="100%" stop-color="#9fb8cd"/>
    </linearGradient>
    <filter id="grain" x="-20%" y="-20%" width="160%" height="160%">
      <feTurbulence type="fractalNoise" baseFrequency="0.7" numOctaves="2" seed="4" result="noise"/>
      <feColorMatrix in="noise" type="saturate" values="0"/>
      <feComponentTransfer><feFuncA type="table" tableValues="0 0.04"/></feComponentTransfer>
    </filter>
    <radialGradient id="bloom" cx="28%" cy="20%" r="45%">
      <stop offset="0%" stop-color="#fff5da" stop-opacity="0.45"/>
      <stop offset="100%" stop-color="#fff5da" stop-opacity="0"/>
    </radialGradient>
  </defs>

  <rect width="1400" height="900" fill="url(#wash)"/>
  <image href="watercolor-paper-custom.svg" x="0" y="0" width="1400" height="900" preserveAspectRatio="xMidYMid slice" opacity="0.34"/>
  <rect width="1400" height="900" fill="url(#bloom)"/>
  <rect width="1400" height="900" fill="#f4ecdf" opacity="0.24"/>
  <rect width="1400" height="900" filter="url(#grain)"/>

  <g>

    <rect x="160" y="180" width="1080" height="560" rx="30" fill="#8b9cac"/>
    <rect x="220" y="240" width="440" height="420" rx="20" fill="#9faeb8"/>
    <circle cx="440" cy="450" r="128" fill="#d9e4ea"/>
    <text x="440" y="422" text-anchor="middle" font-family="Georgia, serif" font-size="42" fill="#4b5964">-2°</text>
    <text x="440" y="468" text-anchor="middle" font-family="Georgia, serif" font-size="28" fill="#4b5964">Cooling Restored</text>
    <g transform="translate(760 620) scale(1.9)">
    <ellipse cx="0" cy="92" rx="32" ry="12" fill="#4a5663" opacity="0.22"/>
    <path d="M-12 4 L12 4 L10 20 L-10 20 Z" fill="#efd0ba" opacity="0.65"/>
    <ellipse cx="0" cy="-10" rx="17" ry="21" fill="#efd0ba"/>
    <ellipse cx="-3" cy="-12" rx="6" ry="8" fill="#fff4e7" opacity="0.28"/>
    <path d="M-21 -10 Q-14 -36 0 -34 Q14 -34 21 -10 Q8 -22 0 -20 Q-8 -22 -21 -10 Z" fill="#4a3a31"/>
    <path d="M-9 -17 Q0 -23 9 -17" stroke="#ffffff" stroke-opacity="0.12" stroke-width="1.8" fill="none" stroke-linecap="round"/>
    <ellipse cx="-6.2" cy="-9" rx="3.2" ry="2.8" fill="#f8fbff"/>
    <ellipse cx="6.2" cy="-9" rx="3.2" ry="2.8" fill="#f8fbff"/>
    <circle cx="-5.8" cy="-8.6" r="1.5" fill="#2c3240"/>
    <circle cx="6.0" cy="-8.6" r="1.5" fill="#2c3240"/>
    <path d="M-2 -4 Q0 -2 2 -4" stroke="#9e7162" stroke-width="1.4" fill="none" stroke-linecap="round"/>
    <path d="M-5 2 Q0 6 5 2" stroke="#8b4f49" stroke-width="1.8" fill="none" stroke-linecap="round"/>
    <path d="M-20 18 Q0 8 20 18 L18 52 Q0 60 -18 52 Z" fill="#7a8dc8"/>
    <path d="M-20 18 Q0 24 20 18" stroke="#ffffff" stroke-opacity="0.16" stroke-width="1.5" fill="none"/>
    <path d="M-26 20 Q-21 28 -18 42 Q-19 48 -24 46 Q-28 42 -26 20 Z" fill="#7a8dc8"/>
    <path d="M26 20 Q21 28 18 42 Q19 48 24 46 Q28 42 26 20 Z" fill="#7a8dc8"/>
    <path d="M-13 56 Q0 52 13 56 L12 84 L-12 84 Z" fill="#4f6177"/>
    <path d="M-3 58 L3 58 L3 84 L-3 84 Z" fill="#ffffff" opacity="0.2"/>
  </g><g transform="translate(900 620) scale(2)">
    <ellipse cx="0" cy="92" rx="32" ry="12" fill="#4a5663" opacity="0.22"/>
    <path d="M-12 4 L12 4 L10 20 L-10 20 Z" fill="#efd0ba" opacity="0.65"/>
    <ellipse cx="0" cy="-10" rx="17" ry="21" fill="#efd0ba"/>
    <ellipse cx="-3" cy="-12" rx="6" ry="8" fill="#fff4e7" opacity="0.28"/>
    <path d="M-21 -10 Q-14 -36 0 -34 Q14 -34 21 -10 Q8 -22 0 -20 Q-8 -22 -21 -10 Z" fill="#4a3a31"/>
    <path d="M-9 -17 Q0 -23 9 -17" stroke="#ffffff" stroke-opacity="0.12" stroke-width="1.8" fill="none" stroke-linecap="round"/>
    <ellipse cx="-6.2" cy="-9" rx="3.2" ry="2.8" fill="#f8fbff"/>
    <ellipse cx="6.2" cy="-9" rx="3.2" ry="2.8" fill="#f8fbff"/>
    <circle cx="-5.8" cy="-8.6" r="1.5" fill="#2c3240"/>
    <circle cx="6.0" cy="-8.6" r="1.5" fill="#2c3240"/>
    <path d="M-2 -4 Q0 -2 2 -4" stroke="#9e7162" stroke-width="1.4" fill="none" stroke-linecap="round"/>
    <path d="M-5 2 Q0 6 5 2" stroke="#8b4f49" stroke-width="1.8" fill="none" stroke-linecap="round"/>
    <path d="M-20 18 Q0 8 20 18 L18 52 Q0 60 -18 52 Z" fill="#d28658"/>
    <path d="M-20 18 Q0 24 20 18" stroke="#ffffff" stroke-opacity="0.16" stroke-width="1.5" fill="none"/>
    <path d="M-26 20 Q-21 28 -18 42 Q-19 48 -24 46 Q-28 42 -26 20 Z" fill="#d28658"/>
    <path d="M26 20 Q21 28 18 42 Q19 48 24 46 Q28 42 26 20 Z" fill="#d28658"/>
    <path d="M-13 56 Q0 52 13 56 L12 84 L-12 84 Z" fill="#4f6177"/>
    <path d="M-3 58 L3 58 L3 84 L-3 84 Z" fill="#ffffff" opacity="0.2"/>
  </g><g transform="translate(1040 620) scale(1.9)">
    <ellipse cx="0" cy="92" rx="32" ry="12" fill="#4a5663" opacity="0.22"/>
    <path d="M-12 4 L12 4 L10 20 L-10 20 Z" fill="#efd0ba" opacity="0.65"/>
    <ellipse cx="0" cy="-10" rx="17" ry="21" fill="#efd0ba"/>
    <ellipse cx="-3" cy="-12" rx="6" ry="8" fill="#fff4e7" opacity="0.28"/>
    <path d="M-21 -10 Q-14 -36 0 -34 Q14 -34 21 -10 Q8 -22 0 -20 Q-8 -22 -21 -10 Z" fill="#4a3a31"/>
    <path d="M-9 -17 Q0 -23 9 -17" stroke="#ffffff" stroke-opacity="0.12" stroke-width="1.8" fill="none" stroke-linecap="round"/>
    <ellipse cx="-6.2" cy="-9" rx="3.2" ry="2.8" fill="#f8fbff"/>
    <ellipse cx="6.2" cy="-9" rx="3.2" ry="2.8" fill="#f8fbff"/>
    <circle cx="-5.8" cy="-8.6" r="1.5" fill="#2c3240"/>
    <circle cx="6.0" cy="-8.6" r="1.5" fill="#2c3240"/>
    <path d="M-2 -4 Q0 -2 2 -4" stroke="#9e7162" stroke-width="1.4" fill="none" stroke-linecap="round"/>
    <path d="M-5 2 Q0 6 5 2" stroke="#8b4f49" stroke-width="1.8" fill="none" stroke-linecap="round"/>
    <path d="M-20 18 Q0 8 20 18 L18 52 Q0 60 -18 52 Z" fill="#6ca47a"/>
    <path d="M-20 18 Q0 24 20 18" stroke="#ffffff" stroke-opacity="0.16" stroke-width="1.5" fill="none"/>
    <path d="M-26 20 Q-21 28 -18 42 Q-19 48 -24 46 Q-28 42 -26 20 Z" fill="#6ca47a"/>
    <path d="M26 20 Q21 28 18 42 Q19 48 24 46 Q28 42 26 20 Z" fill="#6ca47a"/>
    <path d="M-13 56 Q0 52 13 56 L12 84 L-12 84 Z" fill="#4f6177"/>
    <path d="M-3 58 L3 58 L3 84 L-3 84 Z" fill="#ffffff" opacity="0.2"/>
  </g>
    <g transform="translate(1180 620) scale(1.8)">
    <ellipse cx="0" cy="96" rx="36" ry="14" fill="#6f6f7a" opacity="0.24"/>
    <ellipse cx="0" cy="-8" rx="20" ry="24" fill="#ebd0ba"/>
    <path d="M-22 -12 Q0 -44 22 -12" fill="#bfc4ca"/>
    <circle cx="-7" cy="-8" r="3" fill="#2f3340"/><circle cx="7" cy="-8" r="3" fill="#2f3340"/>
    <path d="M-8 4 Q0 12 8 4" stroke="#7b5850" stroke-width="2.6" fill="none" stroke-linecap="round"/>
    <rect x="-18" y="16" width="36" height="50" rx="10" fill="#7f8ea0"/>
    <rect x="-24" y="20" width="6" height="34" rx="3" fill="#7f8ea0"/><rect x="18" y="20" width="6" height="34" rx="3" fill="#7f8ea0"/>
    <rect x="-12" y="64" width="8" height="26" rx="3" fill="#556478"/><rect x="4" y="64" width="8" height="26" rx="3" fill="#556478"/>
  </g>
    <text x="700" y="106" text-anchor="middle" font-family="Georgia, serif" font-size="52" fill="#eaf4fb">Cold Air, Warm Hearts</text>
  
  </g>
</svg>