<?xml version="1.0" encoding="UTF-8"?>
<svg xmlns="http://www.w3.org/2000/svg" width="1400" height="900" viewBox="0 0 1400 900" role="img" aria-label="Mysterious letter at greenhouse">
  <defs>
    <linearGradient id="wash" x1="0" y1="0" x2="0" y2="1">
      <stop offset="0%" stop-color="#e2dccf"/>
      <stop offset="52%" stop-color="#d2cab8"/>
      <stop offset="100%" stop-color="#b7ae9a"/>
    </linearGradient>
    <filter id="grain" x="-20%" y="-20%" width="160%" height="160%">
      <feTurbulence type="fractalNoise" baseFrequency="0.7" numOctaves="2" seed="4" result="noise"/>
      <feColorMatrix in="noise" type="saturate" values="0"/>
      <feComponentTransfer><feFuncA type="table" tableValues="0 0.04"/></feComponentTransfer>
    </filter>
    <radialGradient id="bloom" cx="28%" cy="20%" r="45%">
      <stop offset="0%" stop-color="#fff5da" stop-opacity="0.45"/>
      <stop offset="100%" stop-color="#fff5da" stop-opacity="0"/>
    </radialGradient>
  </defs>

  <rect width="1400" height="900" fill="url(#wash)"/>
  <image href="watercolor-paper-custom.svg" x="0" y="0" width="1400" height="900" preserveAspectRatio="xMidYMid slice" opacity="0.34"/>
  <rect width="1400" height="900" fill="url(#bloom)"/>
  <rect width="1400" height="900" fill="#f4ecdf" opacity="0.24"/>
  <rect width="1400" height="900" filter="url(#grain)"/>

  <g>

    <rect x="120" y="180" width="420" height="500" rx="24" fill="#8ca28b" opacity="0.4"/>
    <rect x="160" y="220" width="340" height="420" rx="18" fill="#7a8f78" opacity="0.55"/>
    <rect x="560" y="560" width="300" height="180" rx="16" fill="#d9c8aa"/>
    <rect x="596" y="598" width="224" height="102" rx="10" fill="#f4efe6" stroke="#c89b86" stroke-width="3"/>
    <text x="708" y="638" text-anchor="middle" font-family="Georgia, serif" font-size="24" fill="#8d4c4c">Zara. Finn. Priya.</text>
    <text x="708" y="672" text-anchor="middle" font-family="Georgia, serif" font-size="22" fill="#a03e3e">The seeds are dying.</text>
    <g transform="translate(980 610) scale(2)">
    <ellipse cx="0" cy="92" rx="32" ry="12" fill="#4a5663" opacity="0.22"/>
    <path d="M-12 4 L12 4 L10 20 L-10 20 Z" fill="#efd0ba" opacity="0.65"/>
    <ellipse cx="0" cy="-10" rx="17" ry="21" fill="#efd0ba"/>
    <ellipse cx="-3" cy="-12" rx="6" ry="8" fill="#fff4e7" opacity="0.28"/>
    <path d="M-21 -10 Q-14 -36 0 -34 Q14 -34 21 -10 Q8 -22 0 -20 Q-8 -22 -21 -10 Z" fill="#59453b"/>
    <path d="M-9 -17 Q0 -23 9 -17" stroke="#ffffff" stroke-opacity="0.12" stroke-width="1.8" fill="none" stroke-linecap="round"/>
    <ellipse cx="-6.2" cy="-9" rx="3.2" ry="2.8" fill="#f8fbff"/>
    <ellipse cx="6.2" cy="-9" rx="3.2" ry="2.8" fill="#f8fbff"/>
    <circle cx="-5.8" cy="-8.6" r="1.5" fill="#2c3240"/>
    <circle cx="6.0" cy="-8.6" r="1.5" fill="#2c3240"/>
    <path d="M-2 -4 Q0 -2 2 -4" stroke="#9e7162" stroke-width="1.4" fill="none" stroke-linecap="round"/>
    <path d="M-5 2 Q0 6 5 2" stroke="#8b4f49" stroke-width="1.8" fill="none" stroke-linecap="round"/>
    <path d="M-20 18 Q0 8 20 18 L18 52 Q0 60 -18 52 Z" fill="#6ca47a"/>
    <path d="M-20 18 Q0 24 20 18" stroke="#ffffff" stroke-opacity="0.16" stroke-width="1.5" fill="none"/>
    <path d="M-26 20 Q-21 28 -18 42 Q-19 48 -24 46 Q-28 42 -26 20 Z" fill="#6ca47a"/>
    <path d="M26 20 Q21 28 18 42 Q19 48 24 46 Q28 42 26 20 Z" fill="#6ca47a"/>
    <path d="M-13 56 Q0 52 13 56 L12 84 L-12 84 Z" fill="#4f6177"/>
    <path d="M-3 58 L3 58 L3 84 L-3 84 Z" fill="#ffffff" opacity="0.2"/>
  </g>
    <g transform="translate(1130 600) scale(2.1)">
    <ellipse cx="0" cy="92" rx="32" ry="12" fill="#4a5663" opacity="0.22"/>
    <path d="M-12 4 L12 4 L10 20 L-10 20 Z" fill="#efd0ba" opacity="0.65"/>
    <ellipse cx="0" cy="-10" rx="17" ry="21" fill="#efd0ba"/>
    <ellipse cx="-3" cy="-12" rx="6" ry="8" fill="#fff4e7" opacity="0.28"/>
    <path d="M-21 -10 Q-14 -36 0 -34 Q14 -34 21 -10 Q8 -22 0 -20 Q-8 -22 -21 -10 Z" fill="#4f3e34"/>
    <path d="M-9 -17 Q0 -23 9 -17" stroke="#ffffff" stroke-opacity="0.12" stroke-width="1.8" fill="none" stroke-linecap="round"/>
    <ellipse cx="-6.2" cy="-9" rx="3.2" ry="2.8" fill="#f8fbff"/>
    <ellipse cx="6.2" cy="-9" rx="3.2" ry="2.8" fill="#f8fbff"/>
    <circle cx="-5.8" cy="-8.6" r="1.5" fill="#2c3240"/>
    <circle cx="6.0" cy="-8.6" r="1.5" fill="#2c3240"/>
    <path d="M-2 -4 Q0 -2 2 -4" stroke="#9e7162" stroke-width="1.4" fill="none" stroke-linecap="round"/>
    <path d="M-5 2 Q0 6 5 2" stroke="#8b4f49" stroke-width="1.8" fill="none" stroke-linecap="round"/>
    <path d="M-20 18 Q0 8 20 18 L18 52 Q0 60 -18 52 Z" fill="#d28658"/>
    <path d="M-20 18 Q0 24 20 18" stroke="#ffffff" stroke-opacity="0.16" stroke-width="1.5" fill="none"/>
    <path d="M-26 20 Q-21 28 -18 42 Q-19 48 -24 46 Q-28 42 -26 20 Z" fill="#d28658"/>
    <path d="M26 20 Q21 28 18 42 Q19 48 24 46 Q28 42 26 20 Z" fill="#d28658"/>
    <path d="M-13 56 Q0 52 13 56 L12 84 L-12 84 Z" fill="#4f6177"/>
    <path d="M-3 58 L3 58 L3 84 L-3 84 Z" fill="#ffffff" opacity="0.2"/>
  </g>
    <g transform="translate(1260 610) scale(1.9)">
    <ellipse cx="0" cy="92" rx="32" ry="12" fill="#4a5663" opacity="0.22"/>
    <path d="M-12 4 L12 4 L10 20 L-10 20 Z" fill="#efd0ba" opacity="0.65"/>
    <ellipse cx="0" cy="-10" rx="17" ry="21" fill="#efd0ba"/>
    <ellipse cx="-3" cy="-12" rx="6" ry="8" fill="#fff4e7" opacity="0.28"/>
    <path d="M-21 -10 Q-14 -36 0 -34 Q14 -34 21 -10 Q8 -22 0 -20 Q-8 -22 -21 -10 Z" fill="#3f322a"/>
    <path d="M-9 -17 Q0 -23 9 -17" stroke="#ffffff" stroke-opacity="0.12" stroke-width="1.8" fill="none" stroke-linecap="round"/>
    <ellipse cx="-6.2" cy="-9" rx="3.2" ry="2.8" fill="#f8fbff"/>
    <ellipse cx="6.2" cy="-9" rx="3.2" ry="2.8" fill="#f8fbff"/>
    <circle cx="-5.8" cy="-8.6" r="1.5" fill="#2c3240"/>
    <circle cx="6.0" cy="-8.6" r="1.5" fill="#2c3240"/>
    <path d="M-2 -4 Q0 -2 2 -4" stroke="#9e7162" stroke-width="1.4" fill="none" stroke-linecap="round"/>
    <path d="M-5 2 Q0 6 5 2" stroke="#8b4f49" stroke-width="1.8" fill="none" stroke-linecap="round"/>
    <path d="M-20 18 Q0 8 20 18 L18 52 Q0 60 -18 52 Z" fill="#7a8dc8"/>
    <path d="M-20 18 Q0 24 20 18" stroke="#ffffff" stroke-opacity="0.16" stroke-width="1.5" fill="none"/>
    <path d="M-26 20 Q-21 28 -18 42 Q-19 48 -24 46 Q-28 42 -26 20 Z" fill="#7a8dc8"/>
    <path d="M26 20 Q21 28 18 42 Q19 48 24 46 Q28 42 26 20 Z" fill="#7a8dc8"/>
    <path d="M-13 56 Q0 52 13 56 L12 84 L-12 84 Z" fill="#4f6177"/>
    <path d="M-3 58 L3 58 L3 84 L-3 84 Z" fill="#ffffff" opacity="0.2"/>
  </g>
    <text x="700" y="106" text-anchor="middle" font-family="Georgia, serif" font-size="52" fill="#4f3d35">The Letter That Shouldn't Exist</text>
  
  </g>
</svg>