<?xml version="1.0" encoding="UTF-8"?>
<svg xmlns="http://www.w3.org/2000/svg" width="1400" height="900" viewBox="0 0 1400 900" role="img" aria-label="Inside vault with seed jars and old voss">
  <defs>
    <linearGradient id="wash" x1="0" y1="0" x2="0" y2="1">
      <stop offset="0%" stop-color="#5a6f82"/>
      <stop offset="52%" stop-color="#7f94a8"/>
      <stop offset="100%" stop-color="#9fafb7"/>
    </linearGradient>
    <filter id="grain" x="-20%" y="-20%" width="160%" height="160%">
      <feTurbulence type="fractalNoise" baseFrequency="0.7" numOctaves="2" seed="4" result="noise"/>
      <feColorMatrix in="noise" type="saturate" values="0"/>
      <feComponentTransfer><feFuncA type="table" tableValues="0 0.04"/></feComponentTransfer>
    </filter>
    <radialGradient id="bloom" cx="28%" cy="20%" r="45%">
      <stop offset="0%" stop-color="#fff5da" stop-opacity="0.45"/>
      <stop offset="100%" stop-color="#fff5da" stop-opacity="0"/>
    </radialGradient>
  </defs>

  <rect width="1400" height="900" fill="url(#wash)"/>
  <image href="watercolor-paper-custom.svg" x="0" y="0" width="1400" height="900" preserveAspectRatio="xMidYMid slice" opacity="0.34"/>
  <rect width="1400" height="900" fill="url(#bloom)"/>
  <rect width="1400" height="900" fill="#f4ecdf" opacity="0.24"/>
  <rect width="1400" height="900" filter="url(#grain)"/>

  <g>

    <rect x="120" y="140" width="1160" height="640" rx="36" fill="#7b8792"/>
    <rect x="160" y="190" width="1080" height="540" rx="26" fill="#a3b0bc"/>
    <g transform="translate(260 360) scale(1)">
    <rect x="-20" y="-34" width="40" height="72" rx="10" fill="#d9eef8" stroke="#8fb0c2" stroke-width="2"/>
    <rect x="-14" y="-26" width="28" height="12" rx="3" fill="#f5eac8"/>
    <ellipse cx="0" cy="18" rx="10" ry="6" fill="#8e6f46"/>
    <ellipse cx="-8" cy="24" rx="4" ry="3" fill="#7a5936"/>
    <ellipse cx="6" cy="24" rx="4" ry="3" fill="#7a5936"/>
  </g><g transform="translate(360 360) scale(1)">
    <rect x="-20" y="-34" width="40" height="72" rx="10" fill="#d9eef8" stroke="#8fb0c2" stroke-width="2"/>
    <rect x="-14" y="-26" width="28" height="12" rx="3" fill="#f5eac8"/>
    <ellipse cx="0" cy="18" rx="10" ry="6" fill="#8e6f46"/>
    <ellipse cx="-8" cy="24" rx="4" ry="3" fill="#7a5936"/>
    <ellipse cx="6" cy="24" rx="4" ry="3" fill="#7a5936"/>
  </g><g transform="translate(460 360) scale(1)">
    <rect x="-20" y="-34" width="40" height="72" rx="10" fill="#d9eef8" stroke="#8fb0c2" stroke-width="2"/>
    <rect x="-14" y="-26" width="28" height="12" rx="3" fill="#f5eac8"/>
    <ellipse cx="0" cy="18" rx="10" ry="6" fill="#8e6f46"/>
    <ellipse cx="-8" cy="24" rx="4" ry="3" fill="#7a5936"/>
    <ellipse cx="6" cy="24" rx="4" ry="3" fill="#7a5936"/>
  </g><g transform="translate(560 360) scale(1)">
    <rect x="-20" y="-34" width="40" height="72" rx="10" fill="#d9eef8" stroke="#8fb0c2" stroke-width="2"/>
    <rect x="-14" y="-26" width="28" height="12" rx="3" fill="#f5eac8"/>
    <ellipse cx="0" cy="18" rx="10" ry="6" fill="#8e6f46"/>
    <ellipse cx="-8" cy="24" rx="4" ry="3" fill="#7a5936"/>
    <ellipse cx="6" cy="24" rx="4" ry="3" fill="#7a5936"/>
  </g><g transform="translate(660 360) scale(1)">
    <rect x="-20" y="-34" width="40" height="72" rx="10" fill="#d9eef8" stroke="#8fb0c2" stroke-width="2"/>
    <rect x="-14" y="-26" width="28" height="12" rx="3" fill="#f5eac8"/>
    <ellipse cx="0" cy="18" rx="10" ry="6" fill="#8e6f46"/>
    <ellipse cx="-8" cy="24" rx="4" ry="3" fill="#7a5936"/>
    <ellipse cx="6" cy="24" rx="4" ry="3" fill="#7a5936"/>
  </g><g transform="translate(760 360) scale(1)">
    <rect x="-20" y="-34" width="40" height="72" rx="10" fill="#d9eef8" stroke="#8fb0c2" stroke-width="2"/>
    <rect x="-14" y="-26" width="28" height="12" rx="3" fill="#f5eac8"/>
    <ellipse cx="0" cy="18" rx="10" ry="6" fill="#8e6f46"/>
    <ellipse cx="-8" cy="24" rx="4" ry="3" fill="#7a5936"/>
    <ellipse cx="6" cy="24" rx="4" ry="3" fill="#7a5936"/>
  </g><g transform="translate(860 360) scale(1)">
    <rect x="-20" y="-34" width="40" height="72" rx="10" fill="#d9eef8" stroke="#8fb0c2" stroke-width="2"/>
    <rect x="-14" y="-26" width="28" height="12" rx="3" fill="#f5eac8"/>
    <ellipse cx="0" cy="18" rx="10" ry="6" fill="#8e6f46"/>
    <ellipse cx="-8" cy="24" rx="4" ry="3" fill="#7a5936"/>
    <ellipse cx="6" cy="24" rx="4" ry="3" fill="#7a5936"/>
  </g><g transform="translate(960 360) scale(1)">
    <rect x="-20" y="-34" width="40" height="72" rx="10" fill="#d9eef8" stroke="#8fb0c2" stroke-width="2"/>
    <rect x="-14" y="-26" width="28" height="12" rx="3" fill="#f5eac8"/>
    <ellipse cx="0" cy="18" rx="10" ry="6" fill="#8e6f46"/>
    <ellipse cx="-8" cy="24" rx="4" ry="3" fill="#7a5936"/>
    <ellipse cx="6" cy="24" rx="4" ry="3" fill="#7a5936"/>
  </g><g transform="translate(1060 360) scale(1)">
    <rect x="-20" y="-34" width="40" height="72" rx="10" fill="#d9eef8" stroke="#8fb0c2" stroke-width="2"/>
    <rect x="-14" y="-26" width="28" height="12" rx="3" fill="#f5eac8"/>
    <ellipse cx="0" cy="18" rx="10" ry="6" fill="#8e6f46"/>
    <ellipse cx="-8" cy="24" rx="4" ry="3" fill="#7a5936"/>
    <ellipse cx="6" cy="24" rx="4" ry="3" fill="#7a5936"/>
  </g><g transform="translate(1160 360) scale(1)">
    <rect x="-20" y="-34" width="40" height="72" rx="10" fill="#d9eef8" stroke="#8fb0c2" stroke-width="2"/>
    <rect x="-14" y="-26" width="28" height="12" rx="3" fill="#f5eac8"/>
    <ellipse cx="0" cy="18" rx="10" ry="6" fill="#8e6f46"/>
    <ellipse cx="-8" cy="24" rx="4" ry="3" fill="#7a5936"/>
    <ellipse cx="6" cy="24" rx="4" ry="3" fill="#7a5936"/>
  </g>
    <g transform="translate(260 500) scale(1)">
    <rect x="-20" y="-34" width="40" height="72" rx="10" fill="#d9eef8" stroke="#8fb0c2" stroke-width="2"/>
    <rect x="-14" y="-26" width="28" height="12" rx="3" fill="#f5eac8"/>
    <ellipse cx="0" cy="18" rx="10" ry="6" fill="#8e6f46"/>
    <ellipse cx="-8" cy="24" rx="4" ry="3" fill="#7a5936"/>
    <ellipse cx="6" cy="24" rx="4" ry="3" fill="#7a5936"/>
  </g><g transform="translate(360 500) scale(1)">
    <rect x="-20" y="-34" width="40" height="72" rx="10" fill="#d9eef8" stroke="#8fb0c2" stroke-width="2"/>
    <rect x="-14" y="-26" width="28" height="12" rx="3" fill="#f5eac8"/>
    <ellipse cx="0" cy="18" rx="10" ry="6" fill="#8e6f46"/>
    <ellipse cx="-8" cy="24" rx="4" ry="3" fill="#7a5936"/>
    <ellipse cx="6" cy="24" rx="4" ry="3" fill="#7a5936"/>
  </g><g transform="translate(460 500) scale(1)">
    <rect x="-20" y="-34" width="40" height="72" rx="10" fill="#d9eef8" stroke="#8fb0c2" stroke-width="2"/>
    <rect x="-14" y="-26" width="28" height="12" rx="3" fill="#f5eac8"/>
    <ellipse cx="0" cy="18" rx="10" ry="6" fill="#8e6f46"/>
    <ellipse cx="-8" cy="24" rx="4" ry="3" fill="#7a5936"/>
    <ellipse cx="6" cy="24" rx="4" ry="3" fill="#7a5936"/>
  </g><g transform="translate(560 500) scale(1)">
    <rect x="-20" y="-34" width="40" height="72" rx="10" fill="#d9eef8" stroke="#8fb0c2" stroke-width="2"/>
    <rect x="-14" y="-26" width="28" height="12" rx="3" fill="#f5eac8"/>
    <ellipse cx="0" cy="18" rx="10" ry="6" fill="#8e6f46"/>
    <ellipse cx="-8" cy="24" rx="4" ry="3" fill="#7a5936"/>
    <ellipse cx="6" cy="24" rx="4" ry="3" fill="#7a5936"/>
  </g><g transform="translate(660 500) scale(1)">
    <rect x="-20" y="-34" width="40" height="72" rx="10" fill="#d9eef8" stroke="#8fb0c2" stroke-width="2"/>
    <rect x="-14" y="-26" width="28" height="12" rx="3" fill="#f5eac8"/>
    <ellipse cx="0" cy="18" rx="10" ry="6" fill="#8e6f46"/>
    <ellipse cx="-8" cy="24" rx="4" ry="3" fill="#7a5936"/>
    <ellipse cx="6" cy="24" rx="4" ry="3" fill="#7a5936"/>
  </g><g transform="translate(760 500) scale(1)">
    <rect x="-20" y="-34" width="40" height="72" rx="10" fill="#d9eef8" stroke="#8fb0c2" stroke-width="2"/>
    <rect x="-14" y="-26" width="28" height="12" rx="3" fill="#f5eac8"/>
    <ellipse cx="0" cy="18" rx="10" ry="6" fill="#8e6f46"/>
    <ellipse cx="-8" cy="24" rx="4" ry="3" fill="#7a5936"/>
    <ellipse cx="6" cy="24" rx="4" ry="3" fill="#7a5936"/>
  </g><g transform="translate(860 500) scale(1)">
    <rect x="-20" y="-34" width="40" height="72" rx="10" fill="#d9eef8" stroke="#8fb0c2" stroke-width="2"/>
    <rect x="-14" y="-26" width="28" height="12" rx="3" fill="#f5eac8"/>
    <ellipse cx="0" cy="18" rx="10" ry="6" fill="#8e6f46"/>
    <ellipse cx="-8" cy="24" rx="4" ry="3" fill="#7a5936"/>
    <ellipse cx="6" cy="24" rx="4" ry="3" fill="#7a5936"/>
  </g><g transform="translate(960 500) scale(1)">
    <rect x="-20" y="-34" width="40" height="72" rx="10" fill="#d9eef8" stroke="#8fb0c2" stroke-width="2"/>
    <rect x="-14" y="-26" width="28" height="12" rx="3" fill="#f5eac8"/>
    <ellipse cx="0" cy="18" rx="10" ry="6" fill="#8e6f46"/>
    <ellipse cx="-8" cy="24" rx="4" ry="3" fill="#7a5936"/>
    <ellipse cx="6" cy="24" rx="4" ry="3" fill="#7a5936"/>
  </g><g transform="translate(1060 500) scale(1)">
    <rect x="-20" y="-34" width="40" height="72" rx="10" fill="#d9eef8" stroke="#8fb0c2" stroke-width="2"/>
    <rect x="-14" y="-26" width="28" height="12" rx="3" fill="#f5eac8"/>
    <ellipse cx="0" cy="18" rx="10" ry="6" fill="#8e6f46"/>
    <ellipse cx="-8" cy="24" rx="4" ry="3" fill="#7a5936"/>
    <ellipse cx="6" cy="24" rx="4" ry="3" fill="#7a5936"/>
  </g><g transform="translate(1160 500) scale(1)">
    <rect x="-20" y="-34" width="40" height="72" rx="10" fill="#d9eef8" stroke="#8fb0c2" stroke-width="2"/>
    <rect x="-14" y="-26" width="28" height="12" rx="3" fill="#f5eac8"/>
    <ellipse cx="0" cy="18" rx="10" ry="6" fill="#8e6f46"/>
    <ellipse cx="-8" cy="24" rx="4" ry="3" fill="#7a5936"/>
    <ellipse cx="6" cy="24" rx="4" ry="3" fill="#7a5936"/>
  </g>
    <g transform="translate(1080 640) scale(2.1)">
    <ellipse cx="0" cy="96" rx="36" ry="14" fill="#6f6f7a" opacity="0.24"/>
    <ellipse cx="0" cy="-8" rx="20" ry="24" fill="#ebd0ba"/>
    <path d="M-22 -12 Q0 -44 22 -12" fill="#bfc4ca"/>
    <circle cx="-7" cy="-8" r="3" fill="#2f3340"/><circle cx="7" cy="-8" r="3" fill="#2f3340"/>
    <path d="M-8 4 Q0 12 8 4" stroke="#7b5850" stroke-width="2.6" fill="none" stroke-linecap="round"/>
    <rect x="-18" y="16" width="36" height="50" rx="10" fill="#7f8ea0"/>
    <rect x="-24" y="20" width="6" height="34" rx="3" fill="#7f8ea0"/><rect x="18" y="20" width="6" height="34" rx="3" fill="#7f8ea0"/>
    <rect x="-12" y="64" width="8" height="26" rx="3" fill="#556478"/><rect x="4" y="64" width="8" height="26" rx="3" fill="#556478"/>
  </g>
    <text x="700" y="106" text-anchor="middle" font-family="Georgia, serif" font-size="52" fill="#f0efe8">Vault 7</text>
    <text x="700" y="836" text-anchor="middle" font-family="Georgia, serif" font-size="32" fill="#f0efe8">Heritage seeds. Extinct crops. One last backup.</text>
  
  </g>
</svg>