<?xml version="1.0" encoding="UTF-8"?>
<svg xmlns="http://www.w3.org/2000/svg" width="1400" height="900" viewBox="0 0 1400 900" role="img" aria-label="Dry forest and hidden metal door">
  <defs>
    <linearGradient id="wash" x1="0" y1="0" x2="0" y2="1">
      <stop offset="0%" stop-color="#d8cfbf"/>
      <stop offset="52%" stop-color="#c7bcaa"/>
      <stop offset="100%" stop-color="#b4a58f"/>
    </linearGradient>
    <filter id="grain" x="-20%" y="-20%" width="160%" height="160%">
      <feTurbulence type="fractalNoise" baseFrequency="0.7" numOctaves="2" seed="4" result="noise"/>
      <feColorMatrix in="noise" type="saturate" values="0"/>
      <feComponentTransfer><feFuncA type="table" tableValues="0 0.04"/></feComponentTransfer>
    </filter>
    <radialGradient id="bloom" cx="28%" cy="20%" r="45%">
      <stop offset="0%" stop-color="#fff5da" stop-opacity="0.45"/>
      <stop offset="100%" stop-color="#fff5da" stop-opacity="0"/>
    </radialGradient>
  </defs>

  <rect width="1400" height="900" fill="url(#wash)"/>
  <image href="watercolor-paper-custom.svg" x="0" y="0" width="1400" height="900" preserveAspectRatio="xMidYMid slice" opacity="0.34"/>
  <rect width="1400" height="900" fill="url(#bloom)"/>
  <rect width="1400" height="900" fill="#f4ecdf" opacity="0.24"/>
  <rect width="1400" height="900" filter="url(#grain)"/>

  <g>

    <rect y="620" width="1400" height="280" fill="#b8a37b"/>
    <g transform="translate(200 560) scale(1.3)">
    <rect x="-10" y="-8" width="20" height="110" rx="8" fill="#775039"/>
    <circle cx="0" cy="-42" r="50" fill="#7a8c6a"/>
    <circle cx="-34" cy="-28" r="30" fill="#72aa6f"/>
    <circle cx="34" cy="-24" r="28" fill="#72aa6f"/>
  </g><g transform="translate(420 560) scale(1.1)">
    <rect x="-10" y="-8" width="20" height="110" rx="8" fill="#775039"/>
    <circle cx="0" cy="-42" r="50" fill="#7a8c6a"/>
    <circle cx="-34" cy="-28" r="30" fill="#72aa6f"/>
    <circle cx="34" cy="-24" r="28" fill="#72aa6f"/>
  </g><g transform="translate(980 560) scale(1.2)">
    <rect x="-10" y="-8" width="20" height="110" rx="8" fill="#775039"/>
    <circle cx="0" cy="-42" r="50" fill="#7a8c6a"/>
    <circle cx="-34" cy="-28" r="30" fill="#72aa6f"/>
    <circle cx="34" cy="-24" r="28" fill="#72aa6f"/>
  </g><g transform="translate(1170 560) scale(1.3)">
    <rect x="-10" y="-8" width="20" height="110" rx="8" fill="#775039"/>
    <circle cx="0" cy="-42" r="50" fill="#7a8c6a"/>
    <circle cx="-34" cy="-28" r="30" fill="#72aa6f"/>
    <circle cx="34" cy="-24" r="28" fill="#72aa6f"/>
  </g>
    <path d="M0 720 C200 680 340 760 520 720 C740 670 930 770 1140 720 C1240 696 1330 706 1400 720" stroke="#d9ceb2" stroke-width="46" fill="none"/>
    <rect x="840" y="430" width="250" height="220" rx="18" fill="#6f7478" stroke="#4b4f52" stroke-width="6"/>
    <text x="965" y="548" text-anchor="middle" font-family="Georgia, serif" font-size="34" fill="#c7d0d8">Vault 7</text>
    <g transform="translate(520 650) scale(1.9)">
    <ellipse cx="0" cy="92" rx="32" ry="12" fill="#4a5663" opacity="0.22"/>
    <path d="M-12 4 L12 4 L10 20 L-10 20 Z" fill="#efd0ba" opacity="0.65"/>
    <ellipse cx="0" cy="-10" rx="17" ry="21" fill="#efd0ba"/>
    <ellipse cx="-3" cy="-12" rx="6" ry="8" fill="#fff4e7" opacity="0.28"/>
    <path d="M-21 -10 Q-14 -36 0 -34 Q14 -34 21 -10 Q8 -22 0 -20 Q-8 -22 -21 -10 Z" fill="#4a3a31"/>
    <path d="M-9 -17 Q0 -23 9 -17" stroke="#ffffff" stroke-opacity="0.12" stroke-width="1.8" fill="none" stroke-linecap="round"/>
    <ellipse cx="-6.2" cy="-9" rx="3.2" ry="2.8" fill="#f8fbff"/>
    <ellipse cx="6.2" cy="-9" rx="3.2" ry="2.8" fill="#f8fbff"/>
    <circle cx="-5.8" cy="-8.6" r="1.5" fill="#2c3240"/>
    <circle cx="6.0" cy="-8.6" r="1.5" fill="#2c3240"/>
    <path d="M-2 -4 Q0 -2 2 -4" stroke="#9e7162" stroke-width="1.4" fill="none" stroke-linecap="round"/>
    <path d="M-5 2 Q0 6 5 2" stroke="#8b4f49" stroke-width="1.8" fill="none" stroke-linecap="round"/>
    <path d="M-20 18 Q0 8 20 18 L18 52 Q0 60 -18 52 Z" fill="#7a8dc8"/>
    <path d="M-20 18 Q0 24 20 18" stroke="#ffffff" stroke-opacity="0.16" stroke-width="1.5" fill="none"/>
    <path d="M-26 20 Q-21 28 -18 42 Q-19 48 -24 46 Q-28 42 -26 20 Z" fill="#7a8dc8"/>
    <path d="M26 20 Q21 28 18 42 Q19 48 24 46 Q28 42 26 20 Z" fill="#7a8dc8"/>
    <path d="M-13 56 Q0 52 13 56 L12 84 L-12 84 Z" fill="#4f6177"/>
    <path d="M-3 58 L3 58 L3 84 L-3 84 Z" fill="#ffffff" opacity="0.2"/>
  </g><g transform="translate(650 640) scale(2.1)">
    <ellipse cx="0" cy="92" rx="32" ry="12" fill="#4a5663" opacity="0.22"/>
    <path d="M-12 4 L12 4 L10 20 L-10 20 Z" fill="#efd0ba" opacity="0.65"/>
    <ellipse cx="0" cy="-10" rx="17" ry="21" fill="#efd0ba"/>
    <ellipse cx="-3" cy="-12" rx="6" ry="8" fill="#fff4e7" opacity="0.28"/>
    <path d="M-21 -10 Q-14 -36 0 -34 Q14 -34 21 -10 Q8 -22 0 -20 Q-8 -22 -21 -10 Z" fill="#4a3a31"/>
    <path d="M-9 -17 Q0 -23 9 -17" stroke="#ffffff" stroke-opacity="0.12" stroke-width="1.8" fill="none" stroke-linecap="round"/>
    <ellipse cx="-6.2" cy="-9" rx="3.2" ry="2.8" fill="#f8fbff"/>
    <ellipse cx="6.2" cy="-9" rx="3.2" ry="2.8" fill="#f8fbff"/>
    <circle cx="-5.8" cy="-8.6" r="1.5" fill="#2c3240"/>
    <circle cx="6.0" cy="-8.6" r="1.5" fill="#2c3240"/>
    <path d="M-2 -4 Q0 -2 2 -4" stroke="#9e7162" stroke-width="1.4" fill="none" stroke-linecap="round"/>
    <path d="M-5 2 Q0 6 5 2" stroke="#8b4f49" stroke-width="1.8" fill="none" stroke-linecap="round"/>
    <path d="M-20 18 Q0 8 20 18 L18 52 Q0 60 -18 52 Z" fill="#d28658"/>
    <path d="M-20 18 Q0 24 20 18" stroke="#ffffff" stroke-opacity="0.16" stroke-width="1.5" fill="none"/>
    <path d="M-26 20 Q-21 28 -18 42 Q-19 48 -24 46 Q-28 42 -26 20 Z" fill="#d28658"/>
    <path d="M26 20 Q21 28 18 42 Q19 48 24 46 Q28 42 26 20 Z" fill="#d28658"/>
    <path d="M-13 56 Q0 52 13 56 L12 84 L-12 84 Z" fill="#4f6177"/>
    <path d="M-3 58 L3 58 L3 84 L-3 84 Z" fill="#ffffff" opacity="0.2"/>
  </g><g transform="translate(770 650) scale(1.8)">
    <ellipse cx="0" cy="92" rx="32" ry="12" fill="#4a5663" opacity="0.22"/>
    <path d="M-12 4 L12 4 L10 20 L-10 20 Z" fill="#efd0ba" opacity="0.65"/>
    <ellipse cx="0" cy="-10" rx="17" ry="21" fill="#efd0ba"/>
    <ellipse cx="-3" cy="-12" rx="6" ry="8" fill="#fff4e7" opacity="0.28"/>
    <path d="M-21 -10 Q-14 -36 0 -34 Q14 -34 21 -10 Q8 -22 0 -20 Q-8 -22 -21 -10 Z" fill="#4a3a31"/>
    <path d="M-9 -17 Q0 -23 9 -17" stroke="#ffffff" stroke-opacity="0.12" stroke-width="1.8" fill="none" stroke-linecap="round"/>
    <ellipse cx="-6.2" cy="-9" rx="3.2" ry="2.8" fill="#f8fbff"/>
    <ellipse cx="6.2" cy="-9" rx="3.2" ry="2.8" fill="#f8fbff"/>
    <circle cx="-5.8" cy="-8.6" r="1.5" fill="#2c3240"/>
    <circle cx="6.0" cy="-8.6" r="1.5" fill="#2c3240"/>
    <path d="M-2 -4 Q0 -2 2 -4" stroke="#9e7162" stroke-width="1.4" fill="none" stroke-linecap="round"/>
    <path d="M-5 2 Q0 6 5 2" stroke="#8b4f49" stroke-width="1.8" fill="none" stroke-linecap="round"/>
    <path d="M-20 18 Q0 8 20 18 L18 52 Q0 60 -18 52 Z" fill="#6ca47a"/>
    <path d="M-20 18 Q0 24 20 18" stroke="#ffffff" stroke-opacity="0.16" stroke-width="1.5" fill="none"/>
    <path d="M-26 20 Q-21 28 -18 42 Q-19 48 -24 46 Q-28 42 -26 20 Z" fill="#6ca47a"/>
    <path d="M26 20 Q21 28 18 42 Q19 48 24 46 Q28 42 26 20 Z" fill="#6ca47a"/>
    <path d="M-13 56 Q0 52 13 56 L12 84 L-12 84 Z" fill="#4f6177"/>
    <path d="M-3 58 L3 58 L3 84 L-3 84 Z" fill="#ffffff" opacity="0.2"/>
  </g>
    <text x="700" y="106" text-anchor="middle" font-family="Georgia, serif" font-size="52" fill="#56493d">Into Harrow Forest</text>
  
  </g>
</svg>