<?xml version="1.0" encoding="UTF-8"?>
<svg xmlns="http://www.w3.org/2000/svg" width="1400" height="900" viewBox="0 0 1400 900" role="img" aria-label="New Mia at family dinner">
  <defs>
    <linearGradient id="bgWash" x1="0" y1="0" x2="0" y2="1">
      <stop offset="0%" stop-color="#f8ddb0"/>
      <stop offset="52%" stop-color="#f1c38a"/>
      <stop offset="100%" stop-color="#ddaa7d"/>
    </linearGradient>
    <filter id="paperGrain" x="-20%" y="-20%" width="140%" height="140%">
      <feTurbulence type="fractalNoise" baseFrequency="0.8" numOctaves="2" seed="3" result="noise"/>
      <feColorMatrix in="noise" type="saturate" values="0"/>
      <feComponentTransfer>
        <feFuncA type="table" tableValues="0 0.03"/>
      </feComponentTransfer>
    </filter>
    <radialGradient id="lightBloom" cx="30%" cy="22%" r="48%">
      <stop offset="0%" stop-color="#fff8d8" stop-opacity="0.5"/>
      <stop offset="100%" stop-color="#fff8d8" stop-opacity="0"/>
    </radialGradient>
  </defs>

  <rect width="1400" height="900" fill="url(#bgWash)"/>
  <rect width="1400" height="900" fill="url(#lightBloom)"/>
  <rect width="1400" height="900" filter="url(#paperGrain)"/>

  <g>

    <rect x="0" y="612" width="1400" height="288" fill="#9b6e49"/>
    
    <g transform="translate(296 518) scale(1.9)">
      <ellipse cx="0" cy="86" rx="34" ry="14" fill="#7f92a5" opacity="0.2"/>
      <ellipse cx="0" cy="-6" rx="20" ry="24" fill="#f2d4bf"/>
      <path d="M-22 -10 Q0 -40 22 -10" fill="#6c4e3b"/>
      <circle cx="-7" cy="-8" r="3" fill="#2e3d57"/>
      <circle cx="7" cy="-8" r="3" fill="#2e3d57"/>
      <path d="M-6 4 Q0 10 6 4" stroke="#6e4b44" stroke-width="2.6" fill="none" stroke-linecap="round"/>
      <rect x="-18" y="16" width="36" height="48" rx="10" fill="#78b667"/>
      <rect x="-26" y="22" width="8" height="34" rx="4" fill="#78b667"/>
      <rect x="18" y="22" width="8" height="34" rx="4" fill="#78b667"/>
      <rect x="-14" y="62" width="10" height="24" rx="4" fill="#547aa8"/>
      <rect x="4" y="62" width="10" height="24" rx="4" fill="#547aa8"/>
    </g>
  
    
    <g transform="translate(694 362) scale(1.26)">
      <ellipse cx="0" cy="242" rx="98" ry="42" fill="#7f92a5" opacity="0.25"/>
      <ellipse cx="0" cy="20" rx="38" ry="46" fill="#f2d4bf"/>
      <path d="M-42 14 C-20 -44 20 -48 42 14 C20 -10 -18 -12 -42 14 Z" fill="#47352e"/>
      <circle cx="-12" cy="12" r="3.6" fill="#3a2d29"/>
      <circle cx="14" cy="12" r="3.6" fill="#3a2d29"/>
      <path d="M-12 28 Q2 36 16 28" fill="none" stroke="#6e4b44" stroke-width="3" stroke-linecap="round"/>
      <path d="M-50 82 Q0 66 50 82 L46 182 Q6 214 -46 182 Z" fill="#d69145"/>
      <path d="M-84 120 C-40 96 22 104 80 122 C62 202 36 254 -10 294 C-40 262 -70 210 -84 120 Z" fill="#79b3be"/>
      <path d="M-22 110 C16 138 44 170 68 234" stroke="#9ed0de" stroke-width="6" fill="none" opacity="0.55"/>
      <rect x="-86" y="96" width="22" height="90" rx="10" fill="#f2d4bf"/>
      <rect x="62" y="104" width="20" height="84" rx="10" fill="#f2d4bf"/>
      <circle cx="70" cy="108" r="7" fill="#dba66f"/>
      <circle cx="72" cy="124" r="6" fill="#dba66f"/>
    </g>
  
    
    <g transform="translate(1092 518) scale(1.9)">
      <ellipse cx="0" cy="86" rx="34" ry="14" fill="#7f92a5" opacity="0.2"/>
      <ellipse cx="0" cy="-6" rx="20" ry="24" fill="#f2d4bf"/>
      <path d="M-22 -10 Q0 -40 22 -10" fill="#6c4e3b"/>
      <circle cx="-7" cy="-8" r="3" fill="#2e3d57"/>
      <circle cx="7" cy="-8" r="3" fill="#2e3d57"/>
      <path d="M-6 4 Q0 10 6 4" stroke="#6e4b44" stroke-width="2.6" fill="none" stroke-linecap="round"/>
      <rect x="-18" y="16" width="36" height="48" rx="10" fill="#f2a146"/>
      <rect x="-26" y="22" width="8" height="34" rx="4" fill="#f2a146"/>
      <rect x="18" y="22" width="8" height="34" rx="4" fill="#f2a146"/>
      <rect x="-14" y="62" width="10" height="24" rx="4" fill="#547aa8"/>
      <rect x="4" y="62" width="10" height="24" rx="4" fill="#547aa8"/>
    </g>
  
    
    <g transform="translate(700 690) scale(1.2)">
      <ellipse cx="0" cy="0" rx="188" ry="56" fill="#ffffff"/>
      <ellipse cx="0" cy="-8" rx="164" ry="42" fill="#f3f6fb"/>
      <circle cx="-82" cy="-8" r="18" fill="#d9473e"/>
      <circle cx="-38" cy="-12" r="18" fill="#2f8d57"/>
      <circle cx="4" cy="-10" r="17" fill="#efc34b"/>
      <circle cx="48" cy="-8" r="17" fill="#4f77d7"/>
      <circle cx="88" cy="-10" r="18" fill="#f28f2a"/>
      <rect x="118" y="-20" width="13" height="40" rx="5" fill="#f3be53"/>
      <rect x="136" y="-22" width="13" height="42" rx="5" fill="#f3be53"/>
      <rect x="154" y="-20" width="13" height="40" rx="5" fill="#f3be53"/>
    </g>
  
    <text x="700" y="114" text-anchor="middle" font-family="Georgia, serif" font-size="56" fill="#5d3f2c">The New Mia</text>
    <text x="700" y="170" text-anchor="middle" font-family="Georgia, serif" font-size="34" fill="#5d3f2c">"I'm painting my rainbow."</text>
    <text x="700" y="836" text-anchor="middle" font-family="Georgia, serif" font-size="34" fill="#5d3f2c">Colourful habits made her strong, sharp, and joyful.</text>
    
  </g>
</svg>
