<?xml version="1.0" encoding="UTF-8"?>
<svg xmlns="http://www.w3.org/2000/svg" width="1400" height="900" viewBox="0 0 1400 900" role="img" aria-label="Mia discovers magical door under oak tree">
  <defs>
    <linearGradient id="bgWash" x1="0" y1="0" x2="0" y2="1">
      <stop offset="0%" stop-color="#c6e5f5"/>
      <stop offset="52%" stop-color="#d9efe0"/>
      <stop offset="100%" stop-color="#b9d7b3"/>
    </linearGradient>
    <filter id="paperGrain" x="-20%" y="-20%" width="140%" height="140%">
      <feTurbulence type="fractalNoise" baseFrequency="0.8" numOctaves="2" seed="3" result="noise"/>
      <feColorMatrix in="noise" type="saturate" values="0"/>
      <feComponentTransfer>
        <feFuncA type="table" tableValues="0 0.03"/>
      </feComponentTransfer>
    </filter>
    <radialGradient id="lightBloom" cx="30%" cy="22%" r="48%">
      <stop offset="0%" stop-color="#fff8d8" stop-opacity="0.5"/>
      <stop offset="100%" stop-color="#fff8d8" stop-opacity="0"/>
    </radialGradient>
  </defs>

  <rect width="1400" height="900" fill="url(#bgWash)"/>
  <rect width="1400" height="900" fill="url(#lightBloom)"/>
  <rect width="1400" height="900" filter="url(#paperGrain)"/>

  <g>

    <rect y="580" width="1400" height="320" fill="#7ebd78"/>
    <rect x="180" y="168" width="300" height="560" rx="140" fill="#7f583b"/>
    <ellipse cx="328" cy="180" rx="282" ry="154" fill="#62a565"/>
    <ellipse cx="170" cy="246" rx="170" ry="100" fill="#6ab16d"/>
    <ellipse cx="500" cy="250" rx="180" ry="104" fill="#6ab16d"/>
    <ellipse cx="328" cy="652" rx="110" ry="66" fill="#684631"/>
    <rect x="276" y="592" width="90" height="124" rx="20" fill="#a17955" stroke="#f4d092" stroke-width="5"/>
    <circle cx="330" cy="652" r="110" fill="#ffeaa3" opacity="0.42"/>
    
    <g transform="translate(732 426) scale(1.2)">
      <ellipse cx="0" cy="242" rx="98" ry="42" fill="#7f92a5" opacity="0.25"/>
      <ellipse cx="0" cy="20" rx="38" ry="46" fill="#f2d4bf"/>
      <path d="M-42 14 C-20 -44 20 -48 42 14 C20 -10 -18 -12 -42 14 Z" fill="#47352e"/>
      <circle cx="-12" cy="12" r="3.6" fill="#3a2d29"/>
      <circle cx="14" cy="12" r="3.6" fill="#3a2d29"/>
      <path d="M-12 28 Q2 36 16 28" fill="none" stroke="#6e4b44" stroke-width="3" stroke-linecap="round"/>
      <path d="M-50 82 Q0 66 50 82 L46 182 Q6 214 -46 182 Z" fill="#d69145"/>
      <path d="M-84 120 C-40 96 22 104 80 122 C62 202 36 254 -10 294 C-40 262 -70 210 -84 120 Z" fill="#70b39a"/>
      <path d="M-22 110 C16 138 44 170 68 234" stroke="#9ed0de" stroke-width="6" fill="none" opacity="0.55"/>
      <rect x="-86" y="96" width="22" height="90" rx="10" fill="#f2d4bf"/>
      <rect x="62" y="104" width="20" height="84" rx="10" fill="#f2d4bf"/>
      <circle cx="70" cy="108" r="7" fill="#dba66f"/>
      <circle cx="72" cy="124" r="6" fill="#dba66f"/>
    </g>
  
    <g opacity="0.72">
      <text x="980" y="152" text-anchor="middle" font-family="Georgia, serif" font-size="56" fill="#355a4a">The Magical Garden Door</text>
      <text x="980" y="216" text-anchor="middle" font-family="Georgia, serif" font-size="30" fill="#355a4a">A tiny glowing door appeared beneath the oak tree.</text>
    </g>
    
  </g>
</svg>
