<?xml version="1.0" encoding="UTF-8"?>
<svg xmlns="http://www.w3.org/2000/svg" width="1200" height="700" viewBox="0 0 1200 700" role="img" aria-label="Mia only eating chips at the table">
  <defs>
    <linearGradient id="bg" x1="0" y1="0" x2="0" y2="1">
      <stop offset="0%" stop-color="#f8b56b"/>
      <stop offset="55%" stop-color="#f6d08d"/>
      <stop offset="100%" stop-color="#f9eac1"/>
    </linearGradient>
  </defs>
  <rect width="1200" height="700" fill="url(#bg)"/>
  <rect y="470" width="1200" height="230" fill="#d5a46f"/>

  <g fill="#fff" opacity="0.35">
    <circle cx="140" cy="120" r="6"/><circle cx="280" cy="90" r="5"/><circle cx="460" cy="120" r="5"/>
    <circle cx="720" cy="100" r="6"/><circle cx="940" cy="88" r="5"/><circle cx="1080" cy="125" r="5"/>
  </g>

  <g transform="translate(460 190)">
    <circle cx="120" cy="92" r="54" fill="#ffd8b1"/>
    <path d="M70 76 Q120 22 170 76" fill="#cc5f3e"/>
    <circle cx="103" cy="96" r="6" fill="#2e3d57"/>
    <circle cx="137" cy="96" r="6" fill="#2e3d57"/>
    <path d="M98 126 Q120 112 142 126" fill="none" stroke="#2e3d57" stroke-width="5" stroke-linecap="round"/>
    <rect x="72" y="148" width="96" height="108" rx="18" fill="#4d96ff"/>
    <rect x="44" y="164" width="30" height="88" rx="14" fill="#4d96ff"/>
    <rect x="166" y="164" width="30" height="88" rx="14" fill="#4d96ff"/>
  </g>

  <g transform="translate(400 420)">
    <ellipse cx="200" cy="38" rx="180" ry="42" fill="#ffffff"/>
    <ellipse cx="200" cy="32" rx="158" ry="30" fill="#f3f7ff"/>
    <g fill="#f8c046">
      <rect x="124" y="14" width="16" height="40" rx="6" transform="rotate(-12 132 34)"/>
      <rect x="148" y="8" width="16" height="44" rx="6" transform="rotate(6 156 30)"/>
      <rect x="174" y="12" width="16" height="42" rx="6" transform="rotate(-4 182 33)"/>
      <rect x="198" y="10" width="16" height="45" rx="6" transform="rotate(10 206 32)"/>
      <rect x="223" y="13" width="16" height="42" rx="6" transform="rotate(-8 231 34)"/>
      <rect x="246" y="10" width="16" height="44" rx="6" transform="rotate(7 254 32)"/>
    </g>
  </g>

  <text x="600" y="100" text-anchor="middle" font-family="Nunito, sans-serif" font-size="52" font-weight="800" fill="#5a3f2c">The Picky Princess</text>
  <text x="600" y="650" text-anchor="middle" font-family="Nunito, sans-serif" font-size="34" font-weight="800" fill="#5a3f2c">"Just chips, please!"</text>
</svg>
