<?xml version="1.0" encoding="UTF-8"?>
<svg xmlns="http://www.w3.org/2000/svg" width="1400" height="900" viewBox="0 0 1400 900" role="img" aria-label="A Prince With Everything, Except Joy">

  <defs>
    <linearGradient id="bg" x1="0" y1="0" x2="0" y2="1">
      <stop offset="0%" stop-color="#6f4350"/>
      <stop offset="55%" stop-color="#8c5562"/>
      <stop offset="100%" stop-color="#c08b7f"/>
    </linearGradient>
  </defs>
  <rect width="1400" height="900" fill="url(#bg)"/>
  <path d="M0 620 C200 560 340 660 540 618 C730 578 950 668 1200 616 C1290 598 1350 608 1400 620 L1400 900 L0 900 Z" fill="rgba(36,62,52,0.26)"/>
  <path d="M0 690 C210 640 380 724 600 682 C820 640 1030 730 1260 688 C1330 676 1380 684 1400 690 L1400 900 L0 900 Z" fill="rgba(24,45,38,0.34)"/>
  <g fill="#ffffff" opacity="0.22">
    <circle cx="120" cy="100" r="6"/><circle cx="280" cy="88" r="5"/><circle cx="510" cy="120" r="6"/>
    <circle cx="760" cy="92" r="6"/><circle cx="980" cy="110" r="5"/><circle cx="1220" cy="96" r="6"/>
  </g>

  <g transform="translate(140 480) scale(1.8)">
    <rect x="0" y="34" width="150" height="108" rx="12" fill="#f6ddb3"/>
    <polygon points="-10,34 75,-22 160,34" fill="#b84a4a"/>
    <rect x="22" y="64" width="30" height="24" rx="4" fill="#8bc2ff"/>
    <rect x="62" y="64" width="30" height="24" rx="4" fill="#8bc2ff"/>
    <rect x="106" y="64" width="22" height="78" rx="4" fill="#88624a"/>
  </g>
  <g transform="translate(900 620) scale(2.1)">
    <circle cx="0" cy="-58" r="24" fill="#ffd8b1"/>
    <polygon points="-14,-90 0,-112 14,-90" fill="#f4ce5b"/>
    <circle cx="-8" cy="-58" r="3.5" fill="#2e3d57"/>
    <circle cx="8" cy="-58" r="3.5" fill="#2e3d57"/>
    <path d="M-8 -45 Q0 -41 8 -45" stroke="#2e3d57" stroke-width="3" fill="none"/>
    <rect x="-20" y="-32" width="40" height="58" rx="12" fill="#8a6fd1"/>
  </g>

  <text x="700" y="110" text-anchor="middle" font-family="Nunito, sans-serif" font-size="52" font-weight="900" fill="#fff6e5">A Prince With Everything, Except Joy</text>
  <text x="700" y="844" text-anchor="middle" font-family="Nunito, sans-serif" font-size="32" font-weight="800" fill="#fff6e5">He left the palace to search for true happiness.</text>
</svg>
