<?xml version="1.0" encoding="UTF-8"?>
<svg xmlns="http://www.w3.org/2000/svg" width="1400" height="900" viewBox="0 0 1400 900" role="img" aria-label="Race Day Shocked Everyone">

  <defs>
    <linearGradient id="bg" x1="0" y1="0" x2="0" y2="1">
      <stop offset="0%" stop-color="#5d7f67"/>
      <stop offset="55%" stop-color="#7aa07f"/>
      <stop offset="100%" stop-color="#a7c39f"/>
    </linearGradient>
  </defs>
  <rect width="1400" height="900" fill="url(#bg)"/>
  <path d="M0 620 C200 560 340 660 540 618 C730 578 950 668 1200 616 C1290 598 1350 608 1400 620 L1400 900 L0 900 Z" fill="rgba(36,62,52,0.26)"/>
  <path d="M0 690 C210 640 380 724 600 682 C820 640 1030 730 1260 688 C1330 676 1380 684 1400 690 L1400 900 L0 900 Z" fill="rgba(24,45,38,0.34)"/>
  <g fill="#ffffff" opacity="0.22">
    <circle cx="120" cy="100" r="6"/><circle cx="280" cy="88" r="5"/><circle cx="510" cy="120" r="6"/>
    <circle cx="760" cy="92" r="6"/><circle cx="980" cy="110" r="5"/><circle cx="1220" cy="96" r="6"/>
  </g>

  <rect x="980" y="340" width="24" height="300" fill="#f5f5f5"/>
  <rect x="1004" y="340" width="24" height="300" fill="#f5f5f5"/>
  <g>
    <rect x="980" y="340" width="48" height="48" fill="#2a2a2a"/>
    <rect x="980" y="388" width="48" height="48" fill="#ffffff"/>
    <rect x="980" y="436" width="48" height="48" fill="#2a2a2a"/>
    <rect x="980" y="484" width="48" height="48" fill="#ffffff"/>
  </g>
  <ellipse cx="700" cy="700" rx="520" ry="150" fill="#cfab6e"/>
  <g transform="translate(900 682) scale(2.4)">
    <ellipse cx="0" cy="0" rx="42" ry="28" fill="#4f8e58"/>
    <ellipse cx="0" cy="0" rx="28" ry="18" fill="#7ac076"/>
    <circle cx="48" cy="-6" r="12" fill="#6aad70"/>
    <circle cx="52" cy="-8" r="2.8" fill="#243b2a"/>
    <rect x="-26" y="20" width="10" height="14" rx="4" fill="#4f8e58"/>
    <rect x="-8" y="20" width="10" height="14" rx="4" fill="#4f8e58"/>
    <rect x="10" y="20" width="10" height="14" rx="4" fill="#4f8e58"/>
    <rect x="28" y="20" width="10" height="14" rx="4" fill="#4f8e58"/>
  </g>
  <g>
    <ellipse cx="680" cy="670" rx="32" ry="20" fill="#ddd"/>
    <circle cx="704" cy="658" r="12" fill="#ddd"/>
  </g>
  <g>
    <ellipse cx="760" cy="662" rx="28" ry="18" fill="#d3d3d3"/>
    <circle cx="782" cy="652" r="10" fill="#d3d3d3"/>
  </g>

  <text x="700" y="110" text-anchor="middle" font-family="Nunito, sans-serif" font-size="52" font-weight="900" fill="#fff6e5">Race Day Shocked Everyone</text>
  <text x="700" y="844" text-anchor="middle" font-family="Nunito, sans-serif" font-size="32" font-weight="800" fill="#fff6e5">Patience and hard work crossed the finish line first.</text>
</svg>
