<?xml version="1.0" encoding="UTF-8"?>
<svg xmlns="http://www.w3.org/2000/svg" width="1400" height="900" viewBox="0 0 1400 900" role="img" aria-label="A Magical Bridge Appeared">

  <defs>
    <linearGradient id="bg" x1="0" y1="0" x2="0" y2="1">
      <stop offset="0%" stop-color="#6f7fb4"/>
      <stop offset="55%" stop-color="#95a2cf"/>
      <stop offset="100%" stop-color="#b8c5de"/>
    </linearGradient>
  </defs>
  <rect width="1400" height="900" fill="url(#bg)"/>
  <path d="M0 620 C200 560 340 660 540 618 C730 578 950 668 1200 616 C1290 598 1350 608 1400 620 L1400 900 L0 900 Z" fill="rgba(36,62,52,0.26)"/>
  <path d="M0 690 C210 640 380 724 600 682 C820 640 1030 730 1260 688 C1330 676 1380 684 1400 690 L1400 900 L0 900 Z" fill="rgba(24,45,38,0.34)"/>
  <g fill="#ffffff" opacity="0.22">
    <circle cx="120" cy="100" r="6"/><circle cx="280" cy="88" r="5"/><circle cx="510" cy="120" r="6"/>
    <circle cx="760" cy="92" r="6"/><circle cx="980" cy="110" r="5"/><circle cx="1220" cy="96" r="6"/>
  </g>

  <g transform="translate(190 520) scale(1.2)">
    <rect x="0" y="34" width="150" height="108" rx="12" fill="#f6ddb3"/>
    <polygon points="-10,34 75,-22 160,34" fill="#c95d54"/>
    <rect x="22" y="64" width="30" height="24" rx="4" fill="#8bc2ff"/>
    <rect x="62" y="64" width="30" height="24" rx="4" fill="#8bc2ff"/>
    <rect x="106" y="64" width="22" height="78" rx="4" fill="#88624a"/>
  </g>
  <g transform="translate(1020 520) scale(1.2)">
    <rect x="0" y="34" width="150" height="108" rx="12" fill="#f6ddb3"/>
    <polygon points="-10,34 75,-22 160,34" fill="#d97158"/>
    <rect x="22" y="64" width="30" height="24" rx="4" fill="#8bc2ff"/>
    <rect x="62" y="64" width="30" height="24" rx="4" fill="#8bc2ff"/>
    <rect x="106" y="64" width="22" height="78" rx="4" fill="#88624a"/>
  </g>
  <path d="M520 650 C600 620 780 680 880 650" stroke="#4f8fc1" stroke-width="44" fill="none"/>
  <g transform="translate(590 520) scale(1.2)">
    <path d="M0 80 C60 20 160 20 220 80" stroke="#d5b88a" stroke-width="16" fill="none" stroke-linecap="round"/>
    <line x1="24" y1="80" x2="196" y2="80" stroke="#d5b88a" stroke-width="14"/>
    <line x1="52" y1="48" x2="52" y2="80" stroke="#d5b88a" stroke-width="8"/>
    <line x1="92" y1="34" x2="92" y2="80" stroke="#d5b88a" stroke-width="8"/>
    <line x1="132" y1="34" x2="132" y2="80" stroke="#d5b88a" stroke-width="8"/>
    <line x1="172" y1="48" x2="172" y2="80" stroke="#d5b88a" stroke-width="8"/>
  </g>
  <circle cx="700" cy="560" r="90" fill="#ffe28a" opacity="0.28"/>
  <circle cx="640" cy="486" r="6" fill="#fff5cf"/><circle cx="760" cy="486" r="6" fill="#fff5cf"/><circle cx="700" cy="462" r="6" fill="#fff5cf"/>

  <text x="700" y="110" text-anchor="middle" font-family="Nunito, sans-serif" font-size="52" font-weight="900" fill="#fff6e5">A Magical Bridge Appeared</text>
  <text x="700" y="844" text-anchor="middle" font-family="Nunito, sans-serif" font-size="32" font-weight="800" fill="#fff6e5">It glowed only when kind words were spoken.</text>
</svg>
